<svg width="477" height="848" viewBox="0 0 477 848" fill="none" xmlns="http://www.w3.org/2000/svg">
<g clip-path="url(#clip0_20_4)">
<rect width="848" height="477" transform="translate(477) rotate(90)" fill="#FF335F"/>
<path d="M22.1654 500.3C22.1654 501.092 22.3462 501.868 22.6864 502.581L38.6624 535.59C39.3588 537.026 39.3588 538.706 38.6624 540.147L30.0976 557.941C28.4229 561.418 30.9589 565.453 34.8186 565.453H57.1211C60.2099 565.453 62.6289 562.789 62.3365 559.716L60.0398 535.771C59.9547 534.862 60.1036 533.948 60.481 533.118L77.2119 495.988C78.4028 493.346 77.2225 490.241 74.5749 489.056L73.3841 488.524C70.7631 487.349 67.6795 488.508 66.4833 491.118L53.3145 519.817C51.5069 523.751 45.9778 523.921 43.9363 520.104L32.0115 497.833C29.4383 493.032 22.1548 494.856 22.1548 500.305L22.1654 500.3Z" fill="#B01E49"/>
<path d="M423.554 440.508L419.981 478.667C419.729 481.396 419.81 484.17 420.234 486.854L427.491 533.289C427.905 535.929 427.995 538.673 427.753 541.357C426.734 552.658 420.173 561.112 412.412 561.112H390.944C383.011 561.112 376.359 552.302 375.552 540.705L377.846 503.414C377.756 502.079 377.846 494.382 377.846 488.796L375.915 435.717C376.511 423.838 383.243 414.658 391.348 414.658H408.223C417.61 414.658 424.826 426.834 423.554 440.493V440.508Z" fill="#B01E49"/>
<path fill-rule="evenodd" clip-rule="evenodd" d="M184.503 200.916C134.809 209.651 104.249 272.059 116.246 340.306C128.243 408.554 178.254 456.797 227.949 448.062C234.456 446.918 240.636 444.853 246.435 441.976C249.264 440.572 252.754 441.372 254.578 443.951C276.583 475.059 308.361 492.607 340.01 487.044C361.904 483.195 380.083 468.929 392.546 448.337C394.458 445.178 398.717 444.275 401.756 446.371C419.062 458.302 438.647 463.674 458.183 460.24C466.128 458.843 473.585 456.074 480.456 452.129C483.13 450.594 486.564 451.123 488.566 453.468C509.982 478.553 538.344 492.011 566.604 487.044C616.299 478.308 646.859 415.901 634.862 347.653C622.864 279.406 572.853 231.162 523.159 239.898C515.213 241.294 507.757 244.063 500.886 248.008C498.212 249.543 494.777 249.014 492.775 246.669C471.36 221.584 442.998 208.126 414.738 213.094C392.845 216.942 374.665 231.208 362.202 251.801C360.291 254.959 356.032 255.862 352.992 253.766C335.687 241.835 316.102 236.463 296.565 239.898C290.058 241.042 283.878 243.106 278.079 245.983C275.25 247.387 271.76 246.587 269.936 244.009C247.931 212.9 216.153 195.352 184.503 200.916Z" fill="#18635F"/>
<path d="M351.72 513.005C345.256 508.266 335.159 507.274 327.518 508.514C323.933 509.094 320.598 506.573 320.304 502.96L320.12 500.721C319.571 494.084 314.211 488.854 307.556 488.454L304.198 488.255C301.254 488.083 298.755 486.032 298.02 483.183C297.284 480.333 296.142 477.555 294.562 475.084C289.909 467.829 279.677 460.826 268.761 463.488C258.808 465.918 251.218 475.676 250.895 483.606C250.865 484.406 250.205 485.039 249.4 484.99C242.737 484.588 236.808 489.152 235.479 495.677L234.362 501.189L232.406 510.842C231.922 513.237 228.715 513.756 227.503 511.634L222.287 502.553L208.617 478.742L207.333 476.503C204.597 471.742 204.891 465.772 208.214 461.402C215.52 451.811 214.38 442.155 213.806 439.262C213.819 438.932 213.761 438.635 213.609 438.391C211.784 435.412 198.437 440.26 183.811 449.213C169.165 458.177 158.791 467.852 160.619 470.822C160.771 471.066 161.008 471.256 161.305 471.391C163.218 472.892 169.076 476.838 177.737 476.954C185.932 477.073 193.168 482.326 195.577 490.149L203.841 517.027L207.176 527.868L219.981 569.525C220.219 570.312 220.231 571.15 220.01 571.94C218.099 578.786 222.203 585.738 229.126 587.416C234.887 588.814 240.668 589.98 246.45 590.953C246.45 590.953 246.45 590.953 246.448 590.961C247.078 591.067 247.711 591.165 248.333 591.268C249.218 591.41 250.112 591.545 250.999 591.679C252.064 591.835 253.129 591.992 254.19 592.13C254.893 592.23 255.59 592.319 256.294 592.41C257.637 592.583 258.991 592.742 260.332 592.888C260.99 592.957 261.648 593.027 262.309 593.088C263.266 593.189 264.228 593.273 265.188 593.365C265.849 593.427 266.509 593.488 267.172 593.541C268.524 593.646 269.878 593.743 271.235 593.832C271.927 593.876 272.629 593.914 273.32 593.958C273.624 593.972 273.918 593.993 274.222 594.008C274.222 594.008 274.222 594.007 274.224 593.999C287.655 594.683 301.14 594.258 314.705 592.696C321.896 591.866 327.14 585.503 326.538 578.299C326.335 575.844 328.443 573.841 330.889 574.155C336.69 574.905 342.844 574.233 347.682 571.622C365.517 561.984 367.649 524.691 351.726 513.016L351.72 513.005ZM278.474 486.721L267.231 486.05C264.443 485.887 262.592 482.937 263.835 480.437C263.948 480.223 264.063 480 264.194 479.782C267.875 473.659 278.713 470.896 283.251 474.561C284.844 475.85 285.397 477.717 285.621 479.844C286.017 483.688 282.898 486.981 279.028 486.753L278.466 486.719L278.474 486.721ZM344.104 559.194C339.126 562.838 331.509 563.962 325.957 561.156C325.409 560.88 325.05 560.34 325 559.729L324.732 556.5L322.678 531.646C322.422 528.561 324.334 525.651 327.318 524.798C334.098 522.861 341.443 524.411 346.353 529.076C355.199 537.484 352.808 552.822 344.104 559.194Z" fill="white"/>
<path d="M172.285 466.493C174.702 464.884 176.057 462.674 175.311 461.558C174.565 460.442 172.001 460.842 169.584 462.452C167.167 464.061 165.812 466.271 166.558 467.387C167.304 468.503 169.868 468.103 172.285 466.493Z" fill="#B01E49"/>
<path d="M186.71 465.256C189.127 463.646 190.482 461.436 189.736 460.32C188.99 459.204 186.426 459.604 184.009 461.214C181.592 462.823 180.237 465.033 180.983 466.149C181.729 467.265 184.293 466.865 186.71 465.256Z" fill="#B01E49"/>
<path d="M190.124 453.031C192.541 451.422 193.895 449.212 193.149 448.096C192.403 446.98 189.839 447.38 187.422 448.99C185.005 450.599 183.651 452.809 184.397 453.925C185.143 455.041 187.707 454.641 190.124 453.031Z" fill="#B01E49"/>
<path d="M201.556 456.217C203.973 454.608 205.327 452.398 204.581 451.282C203.836 450.166 201.271 450.566 198.854 452.176C196.437 453.785 195.083 455.995 195.829 457.111C196.575 458.227 199.139 457.827 201.556 456.217Z" fill="#B01E49"/>
<path d="M207.413 444.683C209.83 443.073 211.184 440.863 210.438 439.747C209.692 438.631 207.128 439.031 204.711 440.641C202.294 442.251 200.94 444.46 201.686 445.576C202.432 446.692 204.996 446.292 207.413 444.683Z" fill="#B01E49"/>
<path d="M142.422 425.511V441.513C142.422 451.146 138.411 460.521 130.988 468.231L112.443 487.502C108.425 491.678 103.49 495.278 97.8702 498.133L80.9143 506.738C67.7871 513.405 51.7167 515.597 36.4537 512.818L22.5582 510.287C10.8831 508.161 0.360492 503.24 -7.53145 496.224L-37.0155 470.018C-46.8674 461.26 -51.9269 449.855 -51.1194 438.238L-50.7483 432.943C-49.9343 421.279 -43.2666 410.335 -32.184 402.453L-7.20587 384.69C2.32697 377.912 14.523 373.832 27.4092 373.113L48.2982 371.949C56.2552 371.504 64.2383 372.354 71.7461 374.445L104.388 383.531C109.174 384.862 113.713 386.685 117.887 388.948C133.26 397.29 142.422 410.948 142.422 425.522V425.511Z" fill="#18635F"/>
</g>
<defs>
<clipPath id="clip0_20_4">
<rect width="848" height="477" fill="white" transform="translate(477) rotate(90)"/>
</clipPath>
</defs>
</svg>
