<svg id="map" width="343" height="302" viewBox="0 0 343 302" fill="none" xmlns="http://www.w3.org/2000/svg">
<path d="M60.9463 0.505859L0.607213 225.694L281.717 301.018L342.056 75.8291L60.9463 0.505859ZM56.9298 239.151L2.54083 224.578L17.1143 170.189L71.5033 184.762L56.9298 239.151ZM71.9119 183.238L17.5229 168.664L32.0985 114.267L86.4874 128.841L71.9119 183.238ZM86.8961 127.316L32.5071 112.742L47.0806 58.3534L101.47 72.9269L86.8961 127.316ZM101.878 71.4019L47.4892 56.8285L62.0627 2.43948L116.452 17.013L101.878 71.4019ZM112.844 254.134L58.4548 239.56L73.0283 185.171L127.417 199.745L112.844 254.134ZM127.826 198.22L73.4369 183.646L88.0124 129.25L142.401 143.823L127.826 198.22ZM142.81 142.298L88.421 127.725L102.995 73.3356L157.384 87.909L142.81 142.298ZM157.792 86.384L103.403 71.8106L117.977 17.4216L172.366 31.9951L157.792 86.384ZM168.765 269.118L114.369 254.542L128.942 200.153L183.339 214.729L168.765 269.118ZM183.747 213.204L129.351 198.628L143.926 144.232L198.323 158.807L183.747 213.204ZM198.732 157.282L144.335 142.707L158.909 88.3177L213.305 102.893L198.732 157.282ZM213.714 101.368L159.317 86.7927L173.891 32.4037L228.287 46.9792L213.714 101.368ZM224.679 284.1L170.29 269.526L184.864 215.137L239.253 229.711L224.679 284.1ZM239.661 228.186L185.272 213.612L199.848 159.216L254.237 173.789L239.661 228.186ZM254.646 172.264L200.257 157.691L214.83 103.302L269.219 117.875L254.646 172.264ZM269.628 116.35L215.239 101.777L229.812 47.3878L284.201 61.9613L269.628 116.35ZM280.601 299.084L226.204 284.508L240.778 230.119L295.174 244.695L280.601 299.084ZM295.583 243.17L241.186 228.594L255.762 174.198L310.159 188.773L295.583 243.17ZM310.567 187.248L256.171 172.673L270.744 118.284L325.141 132.859L310.567 187.248ZM325.549 131.334L271.153 116.759L285.726 62.3699L340.123 76.9455L325.549 131.334Z" fill="white"/>
<path id="ceil-1" class="mapCeil" d="M116.451 17.0129L62.0615 2.43945L47.488 56.8284L101.877 71.4019L116.451 17.0129Z" fill="#16615D"/>
<path id="ceil-6" class="mapCeil" d="M101.469 72.927L47.0801 58.3535L32.5066 112.742L86.8956 127.316L101.469 72.927Z" fill="#16615D"/>
<path id="ceil-7" class="mapCeil" d="M157.383 87.9094L102.994 73.3359L88.4207 127.725L142.81 142.298L157.383 87.9094Z" fill="#16615D"/>
<path id="ceil-8" class="mapCeil" d="M213.305 102.893L158.908 88.3174L144.335 142.706L198.731 157.282L213.305 102.893Z" fill="#16615D"/>
<path id="ceil-9" class="mapCeil" d="M269.218 117.875L214.829 103.302L200.256 157.691L254.645 172.264L269.218 117.875Z" fill="#16615D"/>
<path id="ceil-5" class="mapCeil" d="M340.122 76.9452L285.726 62.3696L271.152 116.759L325.549 131.334L340.122 76.9452Z" fill="#16615D"/>
<path id="ceil-4" class="mapCeil" d="M284.2 61.9612L229.812 47.3877L215.238 101.777L269.627 116.35L284.2 61.9612Z" fill="#16615D"/>
<path id="ceil-3" class="mapCeil" d="M228.286 46.9793L173.89 32.4038L159.316 86.7928L213.713 101.368L228.286 46.9793Z" fill="#16615D"/>
<path id="ceil-2" class="mapCeil" d="M172.365 31.9949L117.976 17.4214L103.402 71.8104L157.791 86.3838L172.365 31.9949Z" fill="#16615D"/>
<path id="ceil-10" class="mapCeil" d="M325.14 132.86L270.743 118.284L256.17 172.673L310.566 187.249L325.14 132.86Z" fill="#16615D"/>
<path id="ceil-11" class="mapCeil" d="M86.4866 128.841L32.0977 114.268L17.5221 168.664L71.9111 183.238L86.4866 128.841Z" fill="#16615D"/>
<path id="ceil-12" class="mapCeil" d="M142.401 143.823L88.0117 129.25L73.4362 183.646L127.825 198.22L142.401 143.823Z" fill="#16615D"/>
<path id="ceil-13" class="mapCeil" d="M198.322 158.807L143.926 144.232L129.35 198.629L183.747 213.204L198.322 158.807Z" fill="#16615D"/>
<path id="ceil-14" class="mapCeil" d="M254.237 173.79L199.848 159.216L185.272 213.613L239.661 228.186L254.237 173.79Z" fill="#16615D"/>
<path id="ceil-15" class="mapCeil" d="M310.157 188.774L255.761 174.198L241.185 228.595L295.582 243.17L310.157 188.774Z" fill="#16615D"/>
<path id="ceil-16" class="mapCeil" d="M71.5023 184.762L17.1133 170.189L2.5398 224.578L56.9288 239.151L71.5023 184.762Z" fill="#16615D"/>
<path id="ceil-17" class="mapCeil" d="M127.416 199.745L73.0273 185.171L58.4539 239.56L112.843 254.134L127.416 199.745Z" fill="#16615D"/>
<path id="ceil-18" class="mapCeil" d="M183.338 214.729L128.941 200.153L114.368 254.542L168.765 269.118L183.338 214.729Z" fill="#16615D"/>
<path id="ceil-19" class="mapCeil" d="M239.252 229.711L184.863 215.138L170.29 269.527L224.679 284.1L239.252 229.711Z" fill="#16615D"/>
<path id="ceil-20" class="mapCeil" d="M295.174 244.695L240.777 230.119L226.204 284.508L280.6 299.084L295.174 244.695Z" fill="#16615D"/>
<rect x="74.4189" y="29.3691" width="15.1023" height="15.1023" rx="7.55117" fill="white"/>
<path d="M81.7759 39.4204V34.7341H80.6609L81.3159 33.8842H82.6337V39.4204H81.7759Z" fill="#16615D"/>
<rect x="59.4365" y="85.2837" width="15.1023" height="15.1023" rx="7.55117" fill="white"/>
<path d="M68.3267 94.8827C67.9732 95.2362 67.5184 95.4129 66.9621 95.4129C66.4059 95.4129 65.9511 95.2362 65.5976 94.8827C65.2441 94.524 65.0674 94.0796 65.0674 93.5493C65.0674 93.2946 65.1167 93.0607 65.2155 92.8476C65.3195 92.6344 65.478 92.3901 65.6912 92.1146L67.5392 89.7988H68.6152L67.0557 91.7637H67.1415C67.5937 91.7637 67.994 91.9353 68.3423 92.2784C68.6906 92.6162 68.8647 93.0373 68.8647 93.5415C68.8647 94.077 68.6854 94.524 68.3267 94.8827ZM66.2214 94.2901C66.4189 94.4876 66.6658 94.5864 66.9621 94.5864C67.2584 94.5864 67.5054 94.4876 67.7029 94.2901C67.9004 94.0874 67.9992 93.8404 67.9992 93.5493C67.9992 93.2634 67.8978 93.0191 67.6951 92.8164C67.4976 92.6137 67.2533 92.5123 66.9621 92.5123C66.671 92.5123 66.4267 92.6137 66.2292 92.8164C66.0316 93.0191 65.9329 93.2634 65.9329 93.5493C65.9329 93.8404 66.0291 94.0874 66.2214 94.2901Z" fill="#16615D"/>
<rect x="44.4541" y="141.201" width="15.1023" height="15.1023" rx="7.55117" fill="white"/>
<path d="M50.5413 151.252V146.566H49.4262L50.0812 145.716H51.399V151.252H50.5413ZM53.0809 151.252V146.566H51.9659L52.6209 145.716H53.9387V151.252H53.0809Z" fill="#16615D"/>
<rect x="29.4707" y="197.119" width="15.1023" height="15.1023" rx="7.55117" fill="white"/>
<path d="M34.705 207.17V202.484H33.59L34.245 201.634H35.5628V207.17H34.705ZM39.6307 206.718C39.2772 207.071 38.8224 207.248 38.2662 207.248C37.7099 207.248 37.2551 207.071 36.9016 206.718C36.5481 206.359 36.3714 205.915 36.3714 205.384C36.3714 205.13 36.4208 204.896 36.5195 204.683C36.6235 204.469 36.782 204.225 36.9952 203.95L38.8432 201.634H39.9192L38.3597 203.599H38.4455C38.8977 203.599 39.298 203.77 39.6463 204.113C39.9946 204.451 40.1687 204.872 40.1687 205.377C40.1687 205.912 39.9894 206.359 39.6307 206.718ZM37.5254 206.125C37.7229 206.323 37.9698 206.421 38.2662 206.421C38.5625 206.421 38.8094 206.323 39.0069 206.125C39.2044 205.922 39.3032 205.675 39.3032 205.384C39.3032 205.098 39.2018 204.854 38.9991 204.651C38.8016 204.449 38.5573 204.347 38.2662 204.347C37.975 204.347 37.7307 204.449 37.5332 204.651C37.3357 204.854 37.2369 205.098 37.2369 205.384C37.2369 205.675 37.3331 205.922 37.5254 206.125Z" fill="#16615D"/>
<rect x="115.29" y="100.25" width="15.1023" height="15.1023" rx="7.55117" fill="white"/>
<path d="M122.18 110.301H121.214L123.755 105.599H121.034V104.765H124.777V105.498L122.18 110.301Z" fill="#16615D"/>
<rect x="130.272" y="44.3354" width="15.1023" height="15.1023" rx="7.55117" fill="white"/>
<path d="M139.642 53.5446V54.3867H135.977V54.0748C135.977 53.8773 136.006 53.6901 136.063 53.5134C136.126 53.3315 136.191 53.1807 136.258 53.0612C136.326 52.9416 136.438 52.809 136.593 52.6635C136.749 52.5127 136.869 52.4062 136.952 52.3438C137.035 52.2762 137.181 52.167 137.389 52.0163C137.602 51.8655 137.737 51.7694 137.794 51.7278C138.122 51.4887 138.358 51.2781 138.504 51.0962C138.649 50.9143 138.722 50.6959 138.722 50.4412C138.722 50.1865 138.644 49.9838 138.488 49.833C138.332 49.6771 138.117 49.5991 137.841 49.5991C137.555 49.5991 137.319 49.6849 137.131 49.8564C136.944 50.0227 136.848 50.2515 136.843 50.5426H135.977C135.977 50.0175 136.154 49.5887 136.508 49.256C136.866 48.9233 137.313 48.757 137.849 48.757C138.343 48.757 138.756 48.9025 139.089 49.1936C139.421 49.4847 139.588 49.8928 139.588 50.4178C139.588 50.8337 139.492 51.1846 139.299 51.4705C139.112 51.7512 138.8 52.0475 138.363 52.3594C138.296 52.4114 138.171 52.4997 137.989 52.6245C137.807 52.7493 137.672 52.8454 137.584 52.913C137.501 52.9806 137.41 53.0741 137.311 53.1937C137.212 53.3081 137.144 53.425 137.108 53.5446H139.642Z" fill="#16615D"/>
<rect x="171.144" y="115.215" width="15.1023" height="15.1023" rx="7.55117" fill="white"/>
<path d="M178.69 125.345C178.139 125.345 177.684 125.181 177.325 124.853C176.967 124.521 176.787 124.1 176.787 123.59C176.787 122.946 177.05 122.48 177.575 122.194C177.232 121.929 177.06 121.563 177.06 121.095C177.06 120.674 177.211 120.326 177.513 120.05C177.819 119.775 178.212 119.637 178.69 119.637C179.173 119.637 179.566 119.775 179.867 120.05C180.174 120.32 180.328 120.669 180.328 121.095C180.328 121.563 180.156 121.929 179.813 122.194C180.338 122.48 180.6 122.946 180.6 123.59C180.6 124.105 180.421 124.526 180.062 124.853C179.709 125.181 179.251 125.345 178.69 125.345ZM178.69 124.541C179.007 124.541 179.259 124.448 179.446 124.261C179.634 124.074 179.727 123.845 179.727 123.575C179.727 123.299 179.634 123.07 179.446 122.888C179.259 122.701 179.01 122.608 178.698 122.608C178.381 122.608 178.129 122.701 177.941 122.888C177.754 123.07 177.661 123.299 177.661 123.575C177.661 123.845 177.754 124.074 177.941 124.261C178.134 124.448 178.383 124.541 178.69 124.541ZM178.69 121.883C178.929 121.883 179.122 121.812 179.267 121.672C179.418 121.526 179.493 121.352 179.493 121.15C179.493 120.936 179.42 120.762 179.275 120.627C179.129 120.487 178.934 120.417 178.69 120.417C178.456 120.417 178.264 120.487 178.113 120.627C177.967 120.767 177.895 120.942 177.895 121.15C177.895 121.352 177.97 121.526 178.121 121.672C178.272 121.812 178.461 121.883 178.69 121.883Z" fill="#16615D"/>
<rect x="100.308" y="156.167" width="15.1023" height="15.1023" rx="7.55117" fill="white"/>
<path d="M105.538 166.218V161.532H104.423L105.078 160.682H106.396V166.218H105.538ZM110.947 165.376V166.218H107.282V165.906C107.282 165.709 107.311 165.522 107.368 165.345C107.431 165.163 107.496 165.012 107.563 164.893C107.631 164.773 107.743 164.641 107.898 164.495C108.054 164.344 108.174 164.238 108.257 164.175C108.34 164.108 108.486 163.999 108.694 163.848C108.907 163.697 109.042 163.601 109.099 163.559C109.427 163.32 109.663 163.11 109.809 162.928C109.954 162.746 110.027 162.527 110.027 162.273C110.027 162.018 109.949 161.815 109.793 161.665C109.637 161.509 109.422 161.431 109.146 161.431C108.86 161.431 108.624 161.516 108.436 161.688C108.249 161.854 108.153 162.083 108.148 162.374H107.282C107.282 161.849 107.459 161.42 107.813 161.088C108.171 160.755 108.618 160.589 109.154 160.589C109.648 160.589 110.061 160.734 110.394 161.025C110.726 161.316 110.893 161.724 110.893 162.249C110.893 162.665 110.797 163.016 110.604 163.302C110.417 163.583 110.105 163.879 109.668 164.191C109.601 164.243 109.476 164.331 109.294 164.456C109.112 164.581 108.977 164.677 108.889 164.745C108.806 164.812 108.715 164.906 108.616 165.025C108.517 165.14 108.449 165.257 108.413 165.376H110.947Z" fill="#16615D"/>
<rect x="85.3242" y="212.085" width="15.1023" height="15.1023" rx="7.55117" fill="white"/>
<path d="M90.7108 222.136V217.45H89.5958L90.2508 216.6H91.5686V222.136H90.7108ZM93.4844 222.136H92.5175L95.0595 217.434H92.3382V216.6H96.081V217.333L93.4844 222.136Z" fill="#16615D"/>
<rect x="226.997" y="130.181" width="15.1023" height="15.1023" rx="7.55117" fill="white"/>
<path d="M232.909 140.232L234.484 138.252H234.398C233.946 138.252 233.543 138.083 233.189 137.745C232.841 137.402 232.667 136.978 232.667 136.474C232.667 135.944 232.844 135.499 233.197 135.141C233.556 134.782 234.013 134.603 234.569 134.603C235.126 134.603 235.581 134.782 235.934 135.141C236.293 135.499 236.472 135.941 236.472 136.466C236.472 136.731 236.42 136.968 236.316 137.176C236.217 137.384 236.059 137.628 235.84 137.909L233.985 140.232H232.909ZM233.829 137.215C234.026 137.412 234.273 137.511 234.569 137.511C234.866 137.511 235.11 137.412 235.302 137.215C235.5 137.012 235.599 136.763 235.599 136.466C235.599 136.18 235.5 135.936 235.302 135.733C235.105 135.531 234.861 135.429 234.569 135.429C234.278 135.429 234.034 135.531 233.837 135.733C233.639 135.936 233.54 136.18 233.54 136.466C233.54 136.763 233.636 137.012 233.829 137.215Z" fill="#16615D"/>
<rect x="186.126" y="59.3013" width="15.1023" height="15.1023" rx="7.55117" fill="white"/>
<path d="M193.724 69.4305C193.167 69.4305 192.694 69.2642 192.304 68.9315C191.92 68.5988 191.722 68.1595 191.712 67.6137H192.57C192.59 67.91 192.707 68.1465 192.92 68.3233C193.139 68.5 193.407 68.5884 193.724 68.5884C194.01 68.5884 194.243 68.513 194.425 68.3623C194.613 68.2115 194.709 68.0036 194.714 67.7385C194.714 67.4474 194.618 67.229 194.425 67.0835C194.238 66.9327 193.978 66.8574 193.646 66.8574H193.209V66.1244H193.646C193.921 66.1244 194.139 66.0516 194.301 65.9061C194.467 65.7605 194.553 65.5708 194.558 65.3369C194.558 65.1081 194.475 64.9236 194.308 64.7832C194.142 64.6377 193.937 64.5649 193.692 64.5649C193.401 64.5649 193.16 64.6507 192.967 64.8222C192.775 64.9886 192.679 65.2173 192.679 65.5084H191.813C191.813 64.9678 191.995 64.5363 192.359 64.214C192.728 63.8865 193.173 63.7228 193.692 63.7228C194.207 63.7228 194.623 63.8683 194.94 64.1594C195.262 64.4505 195.423 64.8248 195.423 65.2823C195.423 65.537 195.358 65.7735 195.229 65.9918C195.099 66.205 194.937 66.3687 194.745 66.4831C195 66.5922 195.203 66.7612 195.353 66.9899C195.504 67.2186 195.579 67.4863 195.579 67.793C195.579 68.2765 195.405 68.6716 195.057 68.9783C194.714 69.2798 194.269 69.4305 193.724 69.4305Z" fill="#16615D"/>
<rect x="282.851" y="145.147" width="15.1023" height="15.1023" rx="7.55117" fill="white"/>
<path d="M287.845 155.198V150.512H286.73L287.385 149.662H288.703V155.198H287.845ZM293.114 154.684C292.74 155.079 292.259 155.276 291.671 155.276C291.084 155.276 290.603 155.079 290.229 154.684C289.854 154.283 289.667 153.771 289.667 153.148V151.697C289.667 151.073 289.854 150.564 290.229 150.169C290.603 149.769 291.084 149.568 291.671 149.568C292.259 149.568 292.74 149.769 293.114 150.169C293.493 150.564 293.683 151.073 293.683 151.697V153.148C293.683 153.771 293.493 154.283 293.114 154.684ZM291.671 154.434C292.02 154.434 292.298 154.32 292.506 154.091C292.719 153.862 292.825 153.548 292.825 153.148V151.697C292.825 151.297 292.719 150.982 292.506 150.754C292.298 150.525 292.02 150.411 291.671 150.411C291.328 150.411 291.05 150.525 290.837 150.754C290.629 150.982 290.525 151.297 290.525 151.697V153.148C290.525 153.548 290.629 153.862 290.837 154.091C291.05 154.32 291.328 154.434 291.671 154.434Z" fill="#16615D"/>
<rect x="156.161" y="171.133" width="15.1023" height="15.1023" rx="7.55117" fill="white"/>
<path d="M161.319 181.185V176.498H160.204L160.859 175.648H162.177V181.185H161.319ZM165.029 181.263C164.472 181.263 163.999 181.096 163.609 180.764C163.225 180.431 163.027 179.992 163.017 179.446H163.875C163.895 179.742 164.012 179.979 164.225 180.155C164.444 180.332 164.711 180.42 165.029 180.42C165.314 180.42 165.548 180.345 165.73 180.194C165.917 180.044 166.014 179.836 166.019 179.57C166.019 179.279 165.923 179.061 165.73 178.916C165.543 178.765 165.283 178.689 164.951 178.689H164.514V177.956H164.951C165.226 177.956 165.444 177.884 165.606 177.738C165.772 177.593 165.858 177.403 165.863 177.169C165.863 176.94 165.78 176.756 165.613 176.615C165.447 176.47 165.242 176.397 164.997 176.397C164.706 176.397 164.465 176.483 164.272 176.654C164.08 176.821 163.984 177.049 163.984 177.34H163.118C163.118 176.8 163.3 176.368 163.664 176.046C164.033 175.719 164.478 175.555 164.997 175.555C165.512 175.555 165.928 175.7 166.245 175.991C166.567 176.283 166.728 176.657 166.728 177.114C166.728 177.369 166.663 177.606 166.533 177.824C166.404 178.037 166.242 178.201 166.05 178.315C166.305 178.424 166.508 178.593 166.658 178.822C166.809 179.051 166.884 179.318 166.884 179.625C166.884 180.109 166.71 180.504 166.362 180.81C166.019 181.112 165.574 181.263 165.029 181.263Z" fill="#16615D"/>
<rect x="141.178" y="227.051" width="15.1023" height="15.1023" rx="7.55117" fill="white"/>
<path d="M146.355 237.103V232.416H145.24L145.895 231.566H147.213V237.103H146.355ZM149.994 237.181C149.443 237.181 148.988 237.017 148.629 236.689C148.271 236.357 148.091 235.936 148.091 235.426C148.091 234.781 148.354 234.316 148.879 234.03C148.536 233.765 148.364 233.399 148.364 232.931C148.364 232.51 148.515 232.162 148.817 231.886C149.123 231.611 149.516 231.473 149.994 231.473C150.477 231.473 150.87 231.611 151.171 231.886C151.478 232.156 151.632 232.505 151.632 232.931C151.632 233.399 151.46 233.765 151.117 234.03C151.642 234.316 151.904 234.781 151.904 235.426C151.904 235.941 151.725 236.362 151.366 236.689C151.013 237.017 150.555 237.181 149.994 237.181ZM149.994 236.377C150.311 236.377 150.563 236.284 150.75 236.097C150.938 235.91 151.031 235.681 151.031 235.41C151.031 235.135 150.938 234.906 150.75 234.724C150.563 234.537 150.314 234.444 150.002 234.444C149.685 234.444 149.433 234.537 149.245 234.724C149.058 234.906 148.965 235.135 148.965 235.41C148.965 235.681 149.058 235.91 149.245 236.097C149.438 236.284 149.687 236.377 149.994 236.377ZM149.994 233.718C150.233 233.718 150.426 233.648 150.571 233.508C150.722 233.362 150.797 233.188 150.797 232.985C150.797 232.772 150.724 232.598 150.579 232.463C150.433 232.323 150.238 232.253 149.994 232.253C149.76 232.253 149.568 232.323 149.417 232.463C149.271 232.603 149.199 232.778 149.199 232.985C149.199 233.188 149.274 233.362 149.425 233.508C149.576 233.648 149.765 233.718 149.994 233.718Z" fill="#16615D"/>
<rect x="241.979" y="74.2671" width="15.1023" height="15.1023" rx="7.55117" fill="white"/>
<path d="M250.084 84.3184V82.9304H247.222V82.2364L250.178 78.7822H250.942V82.1351H251.682V82.9304H250.942V84.3184H250.084ZM248.298 82.1351H250.084V80.061L248.298 82.1351Z" fill="#16615D"/>
<rect x="212.015" y="186.099" width="15.1023" height="15.1023" rx="7.55117" fill="white"/>
<path d="M217.009 196.15V191.464H215.894L216.549 190.614H217.867V196.15H217.009ZM221.389 196.15V194.762H218.527V194.068L221.483 190.614H222.247V193.967H222.987V194.762H222.247V196.15H221.389ZM219.603 193.967H221.389V191.893L219.603 193.967Z" fill="#16615D"/>
<rect x="197.031" y="242.017" width="15.1023" height="15.1023" rx="7.55117" fill="white"/>
<path d="M202.266 252.068V247.382H201.151L201.806 246.532H203.123V252.068H202.266ZM204.213 252.068L205.788 250.087H205.702C205.25 250.087 204.847 249.918 204.493 249.58C204.145 249.237 203.971 248.814 203.971 248.309C203.971 247.779 204.148 247.335 204.501 246.976C204.86 246.617 205.317 246.438 205.873 246.438C206.43 246.438 206.885 246.617 207.238 246.976C207.597 247.335 207.776 247.777 207.776 248.302C207.776 248.567 207.724 248.803 207.62 249.011C207.521 249.219 207.363 249.464 207.144 249.744L205.289 252.068H204.213ZM205.133 249.05C205.33 249.248 205.577 249.347 205.873 249.347C206.17 249.347 206.414 249.248 206.606 249.05C206.804 248.848 206.903 248.598 206.903 248.302C206.903 248.016 206.804 247.771 206.606 247.569C206.409 247.366 206.165 247.265 205.873 247.265C205.582 247.265 205.338 247.366 205.141 247.569C204.943 247.771 204.844 248.016 204.844 248.302C204.844 248.598 204.94 248.848 205.133 249.05Z" fill="#16615D"/>
<rect x="297.833" y="89.2329" width="15.1023" height="15.1023" rx="7.55117" fill="white"/>
<path d="M305.362 99.3622C304.858 99.3622 304.416 99.2036 304.037 98.8865C303.657 98.5694 303.462 98.1847 303.452 97.7325H304.333C304.39 97.9664 304.513 98.1561 304.7 98.3017C304.892 98.4473 305.113 98.52 305.362 98.52C305.669 98.52 305.919 98.4213 306.111 98.2237C306.303 98.021 306.399 97.7767 306.399 97.4908C306.399 97.1945 306.303 96.9501 306.111 96.7578C305.924 96.5603 305.682 96.4615 305.386 96.4615C304.939 96.4615 304.616 96.6512 304.419 97.0307L303.647 96.789L304.24 93.748H306.875V94.5823H304.91L304.653 95.9079C304.882 95.7467 305.17 95.6662 305.518 95.6662C306.038 95.6662 306.459 95.8455 306.782 96.2042C307.104 96.5629 307.265 97.0203 307.265 97.5765C307.265 98.0964 307.086 98.5252 306.727 98.8631C306.374 99.1958 305.919 99.3622 305.362 99.3622Z" fill="#16615D"/>
<rect x="267.868" y="201.065" width="15.1023" height="15.1023" rx="7.55117" fill="white"/>
<path d="M273.106 211.116V206.43H271.991L272.646 205.58H273.964V211.116H273.106ZM276.667 211.194C276.163 211.194 275.721 211.036 275.342 210.719C274.962 210.401 274.767 210.017 274.757 209.565H275.638C275.695 209.798 275.817 209.988 276.005 210.134C276.197 210.279 276.418 210.352 276.667 210.352C276.974 210.352 277.224 210.253 277.416 210.056C277.608 209.853 277.704 209.609 277.704 209.323C277.704 209.026 277.608 208.782 277.416 208.59C277.229 208.392 276.987 208.294 276.691 208.294C276.244 208.294 275.921 208.483 275.724 208.863L274.952 208.621L275.545 205.58H278.18V206.414H276.215L275.958 207.74C276.187 207.579 276.475 207.498 276.823 207.498C277.343 207.498 277.764 207.678 278.087 208.036C278.409 208.395 278.57 208.852 278.57 209.409C278.57 209.928 278.391 210.357 278.032 210.695C277.678 211.028 277.224 211.194 276.667 211.194Z" fill="#16615D"/>
<rect x="252.885" y="256.982" width="15.1023" height="15.1023" rx="7.55117" fill="white"/>
<path d="M259.892 266.192V267.034H256.227V266.722C256.227 266.524 256.256 266.337 256.313 266.16C256.375 265.978 256.44 265.828 256.508 265.708C256.576 265.589 256.687 265.456 256.843 265.31C256.999 265.16 257.119 265.053 257.202 264.991C257.285 264.923 257.431 264.814 257.639 264.663C257.852 264.513 257.987 264.416 258.044 264.375C258.372 264.136 258.608 263.925 258.754 263.743C258.899 263.561 258.972 263.343 258.972 263.088C258.972 262.833 258.894 262.631 258.738 262.48C258.582 262.324 258.366 262.246 258.091 262.246C257.805 262.246 257.568 262.332 257.381 262.503C257.194 262.67 257.098 262.898 257.093 263.19H256.227C256.227 262.665 256.404 262.236 256.757 261.903C257.116 261.57 257.563 261.404 258.099 261.404C258.592 261.404 259.006 261.549 259.338 261.841C259.671 262.132 259.837 262.54 259.837 263.065C259.837 263.481 259.741 263.832 259.549 264.117C259.362 264.398 259.05 264.694 258.613 265.006C258.546 265.058 258.421 265.147 258.239 265.271C258.057 265.396 257.922 265.492 257.834 265.56C257.75 265.628 257.659 265.721 257.561 265.841C257.462 265.955 257.394 266.072 257.358 266.192H259.892ZM264.005 266.519C263.63 266.914 263.15 267.112 262.562 267.112C261.975 267.112 261.494 266.914 261.12 266.519C260.745 266.119 260.558 265.607 260.558 264.983V263.533C260.558 262.909 260.745 262.399 261.12 262.004C261.494 261.604 261.975 261.404 262.562 261.404C263.15 261.404 263.63 261.604 264.005 262.004C264.384 262.399 264.574 262.909 264.574 263.533V264.983C264.574 265.607 264.384 266.119 264.005 266.519ZM262.562 266.27C262.91 266.27 263.189 266.155 263.396 265.926C263.61 265.698 263.716 265.383 263.716 264.983V263.533C263.716 263.132 263.61 262.818 263.396 262.589C263.189 262.36 262.91 262.246 262.562 262.246C262.219 262.246 261.941 262.36 261.728 262.589C261.52 262.818 261.416 263.132 261.416 263.533V264.983C261.416 265.383 261.52 265.698 261.728 265.926C261.941 266.155 262.219 266.27 262.562 266.27Z" fill="#16615D"/>
</svg>

