<svg id="map" width="323" height="394" viewBox="0 0 323 394" fill="none" xmlns="http://www.w3.org/2000/svg">
<path d="M322.125 0.283691L320.513 124.209L286.384 99.7075L286.359 99.6892L268.932 130.413L119.973 393.054L57.3604 348.393L66.9942 335.256L36.3435 313.363L20.1436 312.926V306.595L11.3856 304.608L0.875977 18.249H38.4046C38.4046 18.249 52.837 24.0976 65.4994 28.8572C73.9066 32.028 81.5343 34.7127 83.6321 34.8869C88.8869 35.3248 137.489 34.8869 143.617 33.1353C149.748 31.3837 219.367 4.23625 219.367 4.23625L244.213 3.2825L322.125 0.283691Z" fill="#477C79"/>
<path id="ceil-1" class="mapCeil" d="M167.626 24.2425L118.847 111.164L66.4071 81.7357L66.2237 71.7993L66.1939 70.1463L65.4351 28.8875C73.8423 32.0582 81.47 34.7429 83.5678 34.9172C84.0309 34.9562 84.831 34.9883 85.9109 35.0135C86.2066 35.0181 86.523 35.0249 86.86 35.0295C99.2106 35.2405 138.113 34.72 143.553 33.1656C145.699 32.5535 155.629 28.8256 167.626 24.2425Z" fill="#16615D"/>
<path id="ceil-2" class="mapCeil" d="M257.077 14.2212L217.934 83.9687L154.914 48.602L168.846 23.7747C190.957 15.3194 219.303 4.26643 219.303 4.26643L244.149 3.31268C248.624 6.99012 253.131 10.8189 257.077 14.2212Z" fill="#16615D"/>
<path id="ceil-3" class="mapCeil" d="M297.898 74.9811L286.384 99.6226L286.32 99.7373L286.295 99.7189L276.567 116.87L218.583 84.3329L257.652 14.716C264.45 20.5875 269.439 25.0651 269.439 25.0651L297.898 74.9811Z" fill="#16615D"/>
<path id="ceil-4" class="mapCeil" d="M276.138 117.625L268.868 130.443L240.847 179.749L183.143 147.365L218.108 85.0574L276.138 117.625Z" fill="#16615D"/>
<path id="ceil-5" class="mapCeil" d="M66.4077 82.7036L68.5812 200.76L118.444 111.908L66.4077 82.7036Z" fill="#16615D"/>
<path id="ceil-6" class="mapCeil" d="M146.928 210.411L108.909 278.159L69.3377 240.929L68.627 202.304L83.9213 175.051L146.928 210.411Z" fill="#16615D"/>
<path id="ceil-7" class="mapCeil" d="M204.926 242.961L162.784 317.117L111.211 280.327L109.459 278.68V278.678L147.57 210.772L204.926 242.961Z" fill="#16615D"/>
<path id="ceil-8" class="mapCeil" d="M240.537 180.295V180.297L205.299 242.305L147.937 210.116L147.93 210.111L182.836 147.914L240.537 180.295Z" fill="#16615D"/>
<path id="ceil-9" class="mapCeil" d="M217.564 84.7534L182.597 147.059L119.525 111.665L154.491 49.3569L217.564 84.7534Z" fill="#16615D"/>
<path id="ceil-10" class="mapCeil" d="M182.29 147.607L147.387 209.805H147.384L147.299 209.757L84.29 174.397L119.145 112.289L119.196 112.199L119.219 112.211L182.29 147.607Z" fill="#16615D"/>
<path d="M218.419 84.2712L257.488 14.6544C257.298 14.4916 257.105 14.3243 256.913 14.1592L217.77 83.9067L154.749 48.54L154.742 48.5354L168.687 23.9298C168.325 24.0697 167.946 23.9947 167.586 24.1323C167.586 24.1323 167.464 24.3951 167.34 24.4432L118.683 111.102L66.2432 81.6736V81.7057L66.2615 82.609V82.6411L118.298 111.845L68.435 200.697V200.743L68.4625 202.19V202.243L83.7568 174.99L146.764 210.35L108.742 278.098L109.293 278.616L147.404 210.71L204.759 242.899L204.768 242.883L205.071 242.353L205.133 242.243L147.77 210.054L147.764 210.049L182.669 147.851L240.371 180.233L240.681 179.687L182.977 147.304L217.942 84.9957L275.972 117.563L276.031 117.458L276.245 117.008L276.364 116.781L218.417 84.2712H218.419ZM147.22 209.742L147.135 209.694L84.126 174.334L118.981 112.226L119.032 112.136L119.055 112.148L182.126 147.544L147.222 209.742H147.22ZM182.431 146.996L119.36 111.602L154.325 49.2943L217.399 84.6908L182.431 146.996Z" fill="white"/>
<circle class="mapCeilNumber" cx="107.776" cy="61.4364" r="6.26744" fill="white"/>
<path class="mapCeilNumber" d="M107.824 63.2133V59.497H106.94L107.46 58.823H108.505V63.2133H107.824Z" fill="#16615D"/>
<circle class="mapCeilNumber" cx="80.5292" cy="128.071" r="6.26744" fill="white"/>
<path class="mapCeilNumber" d="M81.6046 129.491C81.3243 129.771 80.9636 129.911 80.5225 129.911C80.0814 129.911 79.7207 129.771 79.4404 129.491C79.1601 129.206 79.0199 128.854 79.0199 128.433C79.0199 128.231 79.0591 128.046 79.1374 127.877C79.2199 127.708 79.3456 127.514 79.5146 127.295L80.9801 125.459H81.8334L80.5967 127.017H80.6648C81.0234 127.017 81.3408 127.153 81.617 127.425C81.8932 127.693 82.0313 128.027 82.0313 128.427C82.0313 128.852 81.8891 129.206 81.6046 129.491ZM79.9351 129.021C80.0917 129.177 80.2876 129.256 80.5225 129.256C80.7575 129.256 80.9533 129.177 81.11 129.021C81.2666 128.86 81.3449 128.664 81.3449 128.433C81.3449 128.206 81.2646 128.013 81.1038 127.852C80.9471 127.691 80.7534 127.611 80.5225 127.611C80.2917 127.611 80.0979 127.691 79.9413 127.852C79.7846 128.013 79.7063 128.206 79.7063 128.433C79.7063 128.664 79.7826 128.86 79.9351 129.021Z" fill="#16615D"/>
<circle class="mapCeilNumber" cx="134.104" cy="162.47" r="6.26744" fill="white"/>
<path class="mapCeilNumber" d="M133.823 164.247H133.057L135.073 160.518H132.914V159.856H135.883V160.438L133.823 164.247Z" fill="#16615D"/>
<circle class="mapCeilNumber" cx="98.6932" cy="220.339" r="6.26744" fill="white"/>
<path class="mapCeilNumber" d="M97.4061 222.117L98.6552 220.546H98.5872C98.2285 220.546 97.909 220.412 97.6287 220.144C97.3525 219.872 97.2144 219.536 97.2144 219.136C97.2144 218.716 97.3546 218.364 97.6349 218.079C97.9193 217.795 98.2821 217.652 98.7232 217.652C99.1643 217.652 99.525 217.795 99.8053 218.079C100.09 218.364 100.232 218.714 100.232 219.13C100.232 219.341 100.191 219.528 100.108 219.693C100.03 219.858 99.9043 220.052 99.7311 220.274L98.2594 222.117H97.4061ZM98.1358 219.724C98.2924 219.881 98.4882 219.959 98.7232 219.959C98.9582 219.959 99.1519 219.881 99.3045 219.724C99.4611 219.563 99.5394 219.365 99.5394 219.13C99.5394 218.904 99.4611 218.71 99.3045 218.549C99.1478 218.388 98.9541 218.308 98.7232 218.308C98.4924 218.308 98.2986 218.388 98.142 218.549C97.9853 218.71 97.907 218.904 97.907 219.13C97.907 219.365 97.9832 219.563 98.1358 219.724Z" fill="#16615D"/>
<circle class="mapCeilNumber" cx="157.192" cy="260.35" r="6.26744" fill="white"/>
<path class="mapCeilNumber" d="M155.032 262.127V258.411H154.148L154.668 257.737H155.713V262.127H155.032ZM159.211 261.719C158.914 262.033 158.532 262.189 158.067 262.189C157.601 262.189 157.219 262.033 156.923 261.719C156.626 261.402 156.477 260.996 156.477 260.501V259.351C156.477 258.856 156.626 258.452 156.923 258.139C157.219 257.822 157.601 257.663 158.067 257.663C158.532 257.663 158.914 257.822 159.211 258.139C159.512 258.452 159.662 258.856 159.662 259.351V260.501C159.662 260.996 159.512 261.402 159.211 261.719ZM158.067 261.521C158.343 261.521 158.563 261.431 158.728 261.249C158.897 261.068 158.982 260.819 158.982 260.501V259.351C158.982 259.034 158.897 258.784 158.728 258.603C158.563 258.421 158.343 258.331 158.067 258.331C157.795 258.331 157.574 258.421 157.405 258.603C157.24 258.784 157.158 259.034 157.158 259.351V260.501C157.158 260.819 157.24 261.068 157.405 261.249C157.574 261.431 157.795 261.521 158.067 261.521Z" fill="#16615D"/>
<circle class="mapCeilNumber" cx="191.864" cy="196.867" r="6.26744" fill="white"/>
<path class="mapCeilNumber" d="M191.874 198.706C191.437 198.706 191.076 198.576 190.792 198.316C190.507 198.052 190.365 197.719 190.365 197.315C190.365 196.803 190.573 196.434 190.99 196.208C190.718 195.998 190.582 195.707 190.582 195.336C190.582 195.002 190.701 194.726 190.94 194.507C191.184 194.289 191.495 194.18 191.874 194.18C192.257 194.18 192.569 194.289 192.808 194.507C193.051 194.722 193.173 194.998 193.173 195.336C193.173 195.707 193.037 195.998 192.764 196.208C193.181 196.434 193.389 196.803 193.389 197.315C193.389 197.723 193.247 198.057 192.962 198.316C192.682 198.576 192.319 198.706 191.874 198.706ZM191.874 198.069C192.125 198.069 192.325 197.995 192.474 197.846C192.622 197.698 192.696 197.517 192.696 197.302C192.696 197.084 192.622 196.902 192.474 196.758C192.325 196.61 192.128 196.535 191.88 196.535C191.629 196.535 191.429 196.61 191.28 196.758C191.132 196.902 191.058 197.084 191.058 197.302C191.058 197.517 191.132 197.698 191.28 197.846C191.433 197.995 191.631 198.069 191.874 198.069ZM191.874 195.96C192.064 195.96 192.216 195.905 192.332 195.793C192.451 195.678 192.511 195.54 192.511 195.379C192.511 195.21 192.453 195.072 192.338 194.965C192.222 194.854 192.068 194.798 191.874 194.798C191.689 194.798 191.536 194.854 191.416 194.965C191.301 195.076 191.243 195.214 191.243 195.379C191.243 195.54 191.303 195.678 191.423 195.793C191.542 195.905 191.693 195.96 191.874 195.96Z" fill="#16615D"/>
<circle class="mapCeilNumber" cx="169.515" cy="97.41" r="6.26744" fill="white"/>
<path class="mapCeilNumber" d="M169.966 99.1878V98.0872H167.697V97.5368L170.041 94.7975H170.647V97.4565H171.234V98.0872H170.647V99.1878H169.966ZM168.55 97.4565H169.966V95.8116L168.55 97.4565Z" fill="#16615D"/>
<circle class="mapCeilNumber" cx="226.537" cy="133.384" r="6.26744" fill="white"/>
<path class="mapCeilNumber" d="M226.533 135.223C226.133 135.223 225.783 135.098 225.482 134.846C225.181 134.595 225.026 134.29 225.018 133.931H225.717C225.762 134.116 225.859 134.267 226.007 134.382C226.16 134.498 226.335 134.555 226.533 134.555C226.776 134.555 226.974 134.477 227.126 134.32C227.279 134.16 227.355 133.966 227.355 133.739C227.355 133.504 227.279 133.31 227.126 133.158C226.978 133.001 226.786 132.923 226.551 132.923C226.197 132.923 225.941 133.073 225.785 133.374L225.172 133.183L225.642 130.771H227.732V131.433H226.174L225.97 132.484C226.152 132.356 226.38 132.292 226.657 132.292C227.069 132.292 227.403 132.434 227.658 132.719C227.914 133.003 228.042 133.366 228.042 133.807C228.042 134.219 227.899 134.56 227.615 134.827C227.335 135.091 226.974 135.223 226.533 135.223Z" fill="#16615D"/>
<circle class="mapCeilNumber" cx="204.926" cy="37.3739" r="6.26744" fill="white"/>
<path class="mapCeilNumber" d="M206.381 38.4829V39.1507H203.475V38.9034C203.475 38.7467 203.497 38.5983 203.543 38.4581C203.592 38.3139 203.644 38.1943 203.697 38.0995C203.751 38.0047 203.84 37.8996 203.963 37.7841C204.087 37.6646 204.182 37.5801 204.248 37.5306C204.314 37.477 204.429 37.3905 204.594 37.2709C204.763 37.1514 204.87 37.0751 204.916 37.0421C205.175 36.8525 205.363 36.6855 205.478 36.5412C205.594 36.397 205.651 36.2238 205.651 36.0218C205.651 35.8198 205.59 35.6591 205.466 35.5395C205.342 35.4158 205.171 35.354 204.953 35.354C204.726 35.354 204.538 35.422 204.39 35.5581C204.241 35.69 204.165 35.8714 204.161 36.1022H203.475C203.475 35.6859 203.615 35.3458 203.895 35.0819C204.18 34.8181 204.534 34.6862 204.959 34.6862C205.35 34.6862 205.678 34.8016 205.942 35.0325C206.206 35.2633 206.338 35.5869 206.338 36.0033C206.338 36.3331 206.261 36.6113 206.109 36.8381C205.961 37.0607 205.713 37.2956 205.367 37.543C205.313 37.5842 205.214 37.6543 205.07 37.7532C204.926 37.8522 204.819 37.9284 204.749 37.982C204.683 38.0356 204.61 38.1098 204.532 38.2046C204.454 38.2953 204.4 38.3881 204.371 38.4829H206.381Z" fill="#16615D"/>
<circle class="mapCeilNumber" cx="261.21" cy="69.9003" r="6.26744" fill="white"/>
<path class="mapCeilNumber" d="M261.26 71.7398C260.819 71.7398 260.444 71.6079 260.134 71.3441C259.829 71.0803 259.673 70.7319 259.664 70.2991H260.345C260.361 70.534 260.454 70.7216 260.623 70.8618C260.796 71.0019 261.008 71.072 261.26 71.072C261.487 71.072 261.672 71.0122 261.816 70.8927C261.965 70.7731 262.041 70.6082 262.045 70.398C262.045 70.1671 261.969 69.994 261.816 69.8786C261.668 69.759 261.462 69.6993 261.198 69.6993H260.852V69.118H261.198C261.416 69.118 261.59 69.0603 261.717 68.9449C261.849 68.8294 261.917 68.679 261.921 68.4935C261.921 68.3121 261.855 68.1657 261.724 68.0544C261.592 67.939 261.429 67.8813 261.235 67.8813C261.004 67.8813 260.813 67.9493 260.66 68.0854C260.507 68.2173 260.431 68.3987 260.431 68.6295H259.745C259.745 68.2008 259.889 67.8586 260.178 67.603C260.47 67.3433 260.823 67.2135 261.235 67.2135C261.643 67.2135 261.973 67.3289 262.224 67.5598C262.48 67.7906 262.608 68.0874 262.608 68.4502C262.608 68.6522 262.556 68.8398 262.453 69.0129C262.35 69.1819 262.222 69.3118 262.07 69.4025C262.272 69.489 262.433 69.623 262.552 69.8044C262.672 69.9858 262.731 70.1981 262.731 70.4413C262.731 70.8247 262.593 71.138 262.317 71.3812C262.045 71.6203 261.693 71.7398 261.26 71.7398Z" fill="#16615D"/>
</svg>
