<svg id="map" width="375" height="253" viewBox="0 0 375 253" fill="none" xmlns="http://www.w3.org/2000/svg">
<path id="ceil-1" class="mapCeil" d="M85.6 163.01L39.52 175.61L7.4 130.48L1 98.1997L63.14 81.1997L85.6 163.01Z" fill="#16615D"/>
<path id="ceil-6" class="mapCeil" d="M103.809 229.35L57.5895 214.75L40.9395 177.24L86.1095 164.89L103.809 229.35Z" fill="#16615D"/>
<path id="ceil-2" class="mapCeil" d="M134.339 61.7246L65.0742 80.6733L87.4586 162.497L156.723 143.548L134.339 61.7246Z" fill="#16615D"/>
<path id="ceil-7" class="mapCeil" d="M182.22 236.39L176.22 239.76L136.3 252.09L106.31 231.1L87.9902 164.37L157.25 145.43L182.22 236.39Z" fill="#16615D"/>
<path id="ceil-3" class="mapCeil" d="M205.472 42.2627L136.207 61.2114L158.591 143.035L227.856 124.086L205.472 42.2627Z" fill="#16615D"/>
<path id="ceil-8" class="mapCeil" d="M248.5 199.23L183.97 235.41L159.13 144.91L228.39 125.97L248.5 199.23Z" fill="#16615D"/>
<path id="ceil-4" class="mapCeil" d="M276.607 22.8027L207.342 41.7515L229.726 123.575L298.991 104.626L276.607 22.8027Z" fill="#16615D"/>
<path id="ceil-9" class="mapCeil" d="M324.95 199.12L258.28 193.75L250.25 198.26L230.27 125.46L299.53 106.51L324.95 199.12Z" fill="#16615D"/>
<path id="ceil-10" class="mapCeil" d="M358.48 100.7L373.74 189.71L327.01 199.28L301.41 106L360.12 89.9399L358.48 100.7Z" fill="#16615D"/>
<path id="ceil-5" class="mapCeil" d="M367.699 40.1999L360.439 87.8299L300.889 104.12L278.439 22.3199L352.169 2.1499L367.699 40.1999Z" fill="#16615D"/>
<rect x="40.9395" y="125.528" width="14.4172" height="14.4172" rx="7.20859" fill="white"/>
<path d="M47.9635 135.736V131.263H46.899L47.5243 130.451H48.7823V135.736H47.9635Z" fill="#16615D"/>
<rect x="104.872" y="108.01" width="14.4172" height="14.4172" rx="7.20859" fill="white"/>
<path d="M113.818 117.415V118.219H110.319V117.921C110.319 117.732 110.346 117.554 110.401 117.385C110.46 117.211 110.522 117.067 110.587 116.953C110.652 116.839 110.758 116.713 110.907 116.574C111.056 116.43 111.17 116.328 111.249 116.269C111.329 116.204 111.468 116.1 111.666 115.956C111.87 115.812 111.999 115.72 112.053 115.68C112.366 115.452 112.592 115.251 112.731 115.078C112.87 114.904 112.939 114.695 112.939 114.452C112.939 114.209 112.865 114.016 112.716 113.872C112.567 113.723 112.361 113.648 112.098 113.648C111.825 113.648 111.599 113.73 111.421 113.894C111.242 114.053 111.15 114.271 111.145 114.549H110.319C110.319 114.048 110.488 113.638 110.825 113.321C111.168 113.003 111.594 112.844 112.106 112.844C112.577 112.844 112.971 112.983 113.289 113.261C113.607 113.539 113.765 113.929 113.765 114.43C113.765 114.827 113.674 115.162 113.49 115.435C113.311 115.703 113.014 115.986 112.597 116.283C112.532 116.333 112.413 116.417 112.239 116.536C112.066 116.656 111.937 116.747 111.852 116.812C111.773 116.876 111.686 116.966 111.592 117.08C111.498 117.189 111.433 117.301 111.398 117.415H113.818Z" fill="#16615D"/>
<rect x="175.805" y="88.9053" width="14.4172" height="14.4172" rx="7.20859" fill="white"/>
<path d="M183.058 99.1882C182.527 99.1882 182.076 99.0294 181.704 98.7118C181.336 98.3942 181.148 97.9749 181.138 97.4538H181.957C181.977 97.7367 182.088 97.9625 182.292 98.1312C182.5 98.2999 182.756 98.3843 183.058 98.3843C183.331 98.3843 183.555 98.3123 183.728 98.1684C183.907 98.0245 183.999 97.826 184.004 97.5729C184.004 97.295 183.912 97.0866 183.728 96.9477C183.55 96.8037 183.302 96.7318 182.984 96.7318H182.567V96.0321H182.984C183.247 96.0321 183.455 95.9626 183.609 95.8237C183.768 95.6847 183.85 95.5036 183.855 95.2803C183.855 95.0619 183.775 94.8858 183.617 94.7518C183.458 94.6128 183.262 94.5433 183.029 94.5433C182.751 94.5433 182.52 94.6252 182.336 94.789C182.153 94.9478 182.061 95.1661 182.061 95.444H181.235C181.235 94.9279 181.408 94.516 181.756 94.2084C182.108 93.8957 182.532 93.7394 183.029 93.7394C183.52 93.7394 183.917 93.8784 184.22 94.1563C184.527 94.4342 184.681 94.7915 184.681 95.2282C184.681 95.4713 184.619 95.6971 184.495 95.9055C184.371 96.109 184.217 96.2653 184.034 96.3745C184.277 96.4787 184.47 96.64 184.614 96.8583C184.758 97.0767 184.83 97.3322 184.83 97.625C184.83 98.0865 184.664 98.4637 184.331 98.7565C184.004 99.0443 183.579 99.1882 183.058 99.1882Z" fill="#16615D"/>
<rect x="245.957" y="69.9053" width="14.4172" height="14.4172" rx="7.20859" fill="white"/>
<path d="M253.695 80.1138V78.7888H250.963V78.1263L253.784 74.8287H254.513V78.0295H255.221V78.7888H254.513V80.1138H253.695ZM251.99 78.0295H253.695V76.0495L251.99 78.0295Z" fill="#16615D"/>
<rect x="312.158" y="51.9053" width="14.4172" height="14.4172" rx="7.20859" fill="white"/>
<path d="M319.347 62.1882C318.865 62.1882 318.444 62.0369 318.081 61.7341C317.719 61.4314 317.533 61.0642 317.523 60.6325H318.364C318.419 60.8558 318.535 61.0369 318.714 61.1759C318.898 61.3148 319.109 61.3843 319.347 61.3843C319.64 61.3843 319.878 61.29 320.061 61.1014C320.245 60.9079 320.337 60.6747 320.337 60.4017C320.337 60.1189 320.245 59.8856 320.061 59.702C319.883 59.5134 319.652 59.4192 319.369 59.4192C318.942 59.4192 318.635 59.6003 318.446 59.9625L317.709 59.7318L318.275 56.8287H320.791V57.6252H318.915L318.669 58.8907C318.888 58.7368 319.163 58.6599 319.496 58.6599C319.992 58.6599 320.394 58.8311 320.702 59.1735C321.009 59.5159 321.163 59.9526 321.163 60.4836C321.163 60.9798 320.992 61.3893 320.649 61.7118C320.312 62.0294 319.878 62.1882 319.347 62.1882Z" fill="#16615D"/>
<rect x="66.1289" y="193.062" width="14.4172" height="14.4172" rx="7.20859" fill="white"/>
<path d="M74.6165 202.838C74.2791 203.176 73.8449 203.344 73.3139 203.344C72.7829 203.344 72.3487 203.176 72.0112 202.838C71.6738 202.496 71.5051 202.072 71.5051 201.565C71.5051 201.322 71.5522 201.099 71.6465 200.895C71.7457 200.692 71.8971 200.459 72.1006 200.196L73.8647 197.985H74.8919L73.4032 199.861H73.4851C73.9168 199.861 74.2989 200.025 74.6314 200.352C74.9639 200.675 75.1301 201.077 75.1301 201.558C75.1301 202.069 74.9589 202.496 74.6165 202.838ZM72.6067 202.273C72.7953 202.461 73.031 202.555 73.3139 202.555C73.5967 202.555 73.8325 202.461 74.021 202.273C74.2096 202.079 74.3039 201.843 74.3039 201.565C74.3039 201.292 74.2071 201.059 74.0136 200.866C73.825 200.672 73.5918 200.575 73.3139 200.575C73.036 200.575 72.8027 200.672 72.6142 200.866C72.4256 201.059 72.3313 201.292 72.3313 201.565C72.3313 201.843 72.4231 202.079 72.6067 202.273Z" fill="#16615D"/>
<rect x="125.129" y="176.905" width="14.4172" height="14.4172" rx="7.20859" fill="white"/>
<path d="M131.707 187.114H130.784L133.211 182.625H130.613V181.829H134.186V182.528L131.707 187.114Z" fill="#16615D"/>
<rect x="194.957" y="157.905" width="14.4172" height="14.4172" rx="7.20859" fill="white"/>
<path d="M202.162 168.188C201.636 168.188 201.202 168.032 200.859 167.719C200.517 167.402 200.346 167 200.346 166.513C200.346 165.898 200.596 165.454 201.097 165.181C200.77 164.928 200.606 164.578 200.606 164.131C200.606 163.729 200.75 163.397 201.038 163.134C201.331 162.871 201.705 162.739 202.162 162.739C202.623 162.739 202.998 162.871 203.286 163.134C203.579 163.392 203.725 163.724 203.725 164.131C203.725 164.578 203.561 164.928 203.234 165.181C203.735 165.454 203.986 165.898 203.986 166.513C203.986 167.005 203.814 167.407 203.472 167.719C203.135 168.032 202.698 168.188 202.162 168.188ZM202.162 167.422C202.465 167.422 202.705 167.332 202.884 167.154C203.063 166.975 203.152 166.757 203.152 166.498C203.152 166.235 203.063 166.017 202.884 165.843C202.705 165.665 202.467 165.575 202.169 165.575C201.867 165.575 201.626 165.665 201.447 165.843C201.269 166.017 201.179 166.235 201.179 166.498C201.179 166.757 201.269 166.975 201.447 167.154C201.631 167.332 201.869 167.422 202.162 167.422ZM202.162 164.883C202.39 164.883 202.574 164.816 202.713 164.682C202.857 164.543 202.929 164.377 202.929 164.184C202.929 163.98 202.859 163.814 202.72 163.685C202.581 163.551 202.395 163.484 202.162 163.484C201.939 163.484 201.755 163.551 201.611 163.685C201.472 163.819 201.403 163.985 201.403 164.184C201.403 164.377 201.475 164.543 201.619 164.682C201.762 164.816 201.944 164.883 202.162 164.883Z" fill="#16615D"/>
<rect x="331.072" y="120.905" width="14.4172" height="14.4172" rx="7.20859" fill="white"/>
<path d="M335.841 131.114V126.64H334.776L335.402 125.829H336.66V131.114H335.841ZM340.871 130.622C340.513 131 340.054 131.188 339.494 131.188C338.933 131.188 338.474 131 338.116 130.622C337.759 130.24 337.581 129.752 337.581 129.156V127.772C337.581 127.176 337.759 126.69 338.116 126.313C338.474 125.93 338.933 125.739 339.494 125.739C340.054 125.739 340.513 125.93 340.871 126.313C341.233 126.69 341.414 127.176 341.414 127.772V129.156C341.414 129.752 341.233 130.24 340.871 130.622ZM339.494 130.384C339.826 130.384 340.092 130.275 340.29 130.057C340.493 129.838 340.595 129.538 340.595 129.156V127.772C340.595 127.389 340.493 127.089 340.29 126.871C340.092 126.653 339.826 126.543 339.494 126.543C339.166 126.543 338.901 126.653 338.697 126.871C338.499 127.089 338.399 127.389 338.399 127.772V129.156C338.399 129.538 338.499 129.838 338.697 130.057C338.901 130.275 339.166 130.384 339.494 130.384Z" fill="#16615D"/>
<rect x="265.129" y="138.194" width="14.4172" height="14.4172" rx="7.20859" fill="white"/>
<path d="M270.773 148.403L272.277 146.512H272.195C271.763 146.512 271.378 146.351 271.041 146.028C270.709 145.701 270.542 145.296 270.542 144.815C270.542 144.309 270.711 143.885 271.048 143.542C271.391 143.2 271.828 143.028 272.359 143.028C272.89 143.028 273.324 143.2 273.661 143.542C274.004 143.885 274.175 144.306 274.175 144.808C274.175 145.061 274.125 145.286 274.026 145.485C273.932 145.683 273.78 145.917 273.572 146.185L271.8 148.403H270.773ZM271.651 145.522C271.84 145.711 272.076 145.805 272.359 145.805C272.641 145.805 272.875 145.711 273.058 145.522C273.247 145.329 273.341 145.09 273.341 144.808C273.341 144.535 273.247 144.301 273.058 144.108C272.87 143.914 272.636 143.818 272.359 143.818C272.081 143.818 271.847 143.914 271.659 144.108C271.47 144.301 271.376 144.535 271.376 144.808C271.376 145.09 271.468 145.329 271.651 145.522Z" fill="#16615D"/>
<path d="M360.12 89.9403L301.41 106L327.01 199.28L324.95 199.12L299.53 106.51L230.27 125.46L250.25 198.26L248.5 199.23L228.39 125.97L159.13 144.91L183.97 235.41L182.22 236.39L157.25 145.43L87.9895 164.37L106.31 231.1L103.81 229.35L86.1095 164.89L40.9395 177.24L39.5195 175.61L85.5995 163.01L63.1395 81.2003L65.0195 80.6903L87.4795 162.49L156.74 143.55L134.28 61.7503L136.16 61.2303L158.62 143.04L227.88 124.09L205.42 42.2903L207.3 41.7803L229.75 123.58L299.02 104.63L276.56 22.8303L278.44 22.3203L300.89 104.12L360.44 87.8303L360.12 89.9403Z" fill="white"/>
<path d="M358.48 99.55L360.12 88.79L360.44 86.68L367.7 39.04L352.17 1L278.44 21.17L276.56 21.68L207.3 40.62L205.42 41.14L136.16 60.08L134.28 60.6L65.02 79.54L63.14 80.05L1 97.05L7.4 129.33L39.52 174.46L40.94 176.09L57.59 213.6L103.81 228.2L106.31 229.95L136.3 250.94L176.22 238.61L182.22 235.24L183.97 234.26L248.5 198.08L250.25 197.11L258.28 192.6L324.95 197.97L327.01 198.13L373.74 188.56L358.48 99.55Z" stroke="white" stroke-width="2" stroke-miterlimit="10" stroke-linejoin="round"/>
</svg>

