<!-- <svg id="map" width="323" height="394" viewBox="0 0 323 394" fill="none" xmlns="http://www.w3.org/2000/svg">
<path d="M322.125 0.283691L320.513 124.209L286.384 99.7075L286.359 99.6892L268.932 130.413L119.973 393.054L57.3604 348.393L66.9942 335.256L36.3435 313.363L20.1436 312.926V306.595L11.3856 304.608L0.875977 18.249H38.4046C38.4046 18.249 52.837 24.0976 65.4994 28.8572C73.9066 32.028 81.5343 34.7127 83.6321 34.8869C88.8869 35.3248 137.489 34.8869 143.617 33.1353C149.748 31.3837 219.367 4.23625 219.367 4.23625L244.213 3.2825L322.125 0.283691Z" fill="#477C79"/>
<path id="ceil-1" class="mapCeil" d="M167.626 24.2425L118.847 111.164L66.4071 81.7357L66.2237 71.7993L66.1939 70.1463L65.4351 28.8875C73.8423 32.0582 81.47 34.7429 83.5678 34.9172C84.0309 34.9562 84.831 34.9883 85.9109 35.0135C86.2066 35.0181 86.523 35.0249 86.86 35.0295C99.2106 35.2405 138.113 34.72 143.553 33.1656C145.699 32.5535 155.629 28.8256 167.626 24.2425Z" fill="#16615D"/>
<path id="ceil-2" class="mapCeil" d="M257.077 14.2212L217.934 83.9687L154.914 48.602L168.846 23.7747C190.957 15.3194 219.303 4.26643 219.303 4.26643L244.149 3.31268C248.624 6.99012 253.131 10.8189 257.077 14.2212Z" fill="#16615D"/>
<path id="ceil-3" class="mapCeil" d="M297.898 74.9811L286.384 99.6226L286.32 99.7373L286.295 99.7189L276.567 116.87L218.583 84.3329L257.652 14.716C264.45 20.5875 269.439 25.0651 269.439 25.0651L297.898 74.9811Z" fill="#16615D"/>
<path id="ceil-4" class="mapCeil" d="M276.138 117.625L268.868 130.443L240.847 179.749L183.143 147.365L218.108 85.0574L276.138 117.625Z" fill="#16615D"/>
<path id="ceil-5" class="mapCeil" d="M66.4077 82.7036L68.5812 200.76L118.444 111.908L66.4077 82.7036Z" fill="#16615D"/>
<path id="ceil-6" class="mapCeil" d="M146.928 210.411L108.909 278.159L69.3377 240.929L68.627 202.304L83.9213 175.051L146.928 210.411Z" fill="#16615D"/>
<path id="ceil-7" class="mapCeil" d="M204.926 242.961L162.784 317.117L111.211 280.327L109.459 278.68V278.678L147.57 210.772L204.926 242.961Z" fill="#16615D"/>
<path id="ceil-8" class="mapCeil" d="M240.537 180.295V180.297L205.299 242.305L147.937 210.116L147.93 210.111L182.836 147.914L240.537 180.295Z" fill="#16615D"/>
<path id="ceil-9" class="mapCeil" d="M217.564 84.7534L182.597 147.059L119.525 111.665L154.491 49.3569L217.564 84.7534Z" fill="#16615D"/>
<path id="ceil-10" class="mapCeil" d="M182.29 147.607L147.387 209.805H147.384L147.299 209.757L84.29 174.397L119.145 112.289L119.196 112.199L119.219 112.211L182.29 147.607Z" fill="#16615D"/>
<path d="M218.419 84.2712L257.488 14.6544C257.298 14.4916 257.105 14.3243 256.913 14.1592L217.77 83.9067L154.749 48.54L154.742 48.5354L168.687 23.9298C168.325 24.0697 167.946 23.9947 167.586 24.1323C167.586 24.1323 167.464 24.3951 167.34 24.4432L118.683 111.102L66.2432 81.6736V81.7057L66.2615 82.609V82.6411L118.298 111.845L68.435 200.697V200.743L68.4625 202.19V202.243L83.7568 174.99L146.764 210.35L108.742 278.098L109.293 278.616L147.404 210.71L204.759 242.899L204.768 242.883L205.071 242.353L205.133 242.243L147.77 210.054L147.764 210.049L182.669 147.851L240.371 180.233L240.681 179.687L182.977 147.304L217.942 84.9957L275.972 117.563L276.031 117.458L276.245 117.008L276.364 116.781L218.417 84.2712H218.419ZM147.22 209.742L147.135 209.694L84.126 174.334L118.981 112.226L119.032 112.136L119.055 112.148L182.126 147.544L147.222 209.742H147.22ZM182.431 146.996L119.36 111.602L154.325 49.2943L217.399 84.6908L182.431 146.996Z" fill="white"/>
<circle class="mapCeilNumber" cx="107.776" cy="61.4364" r="6.26744" fill="white"/>
<path class="mapCeilNumber" d="M107.824 63.2133V59.497H106.94L107.46 58.823H108.505V63.2133H107.824Z" fill="#16615D"/>
<circle class="mapCeilNumber" cx="80.5292" cy="128.071" r="6.26744" fill="white"/>
<path class="mapCeilNumber" d="M81.6046 129.491C81.3243 129.771 80.9636 129.911 80.5225 129.911C80.0814 129.911 79.7207 129.771 79.4404 129.491C79.1601 129.206 79.0199 128.854 79.0199 128.433C79.0199 128.231 79.0591 128.046 79.1374 127.877C79.2199 127.708 79.3456 127.514 79.5146 127.295L80.9801 125.459H81.8334L80.5967 127.017H80.6648C81.0234 127.017 81.3408 127.153 81.617 127.425C81.8932 127.693 82.0313 128.027 82.0313 128.427C82.0313 128.852 81.8891 129.206 81.6046 129.491ZM79.9351 129.021C80.0917 129.177 80.2876 129.256 80.5225 129.256C80.7575 129.256 80.9533 129.177 81.11 129.021C81.2666 128.86 81.3449 128.664 81.3449 128.433C81.3449 128.206 81.2646 128.013 81.1038 127.852C80.9471 127.691 80.7534 127.611 80.5225 127.611C80.2917 127.611 80.0979 127.691 79.9413 127.852C79.7846 128.013 79.7063 128.206 79.7063 128.433C79.7063 128.664 79.7826 128.86 79.9351 129.021Z" fill="#16615D"/>
<circle class="mapCeilNumber" cx="134.104" cy="162.47" r="6.26744" fill="white"/>
<path class="mapCeilNumber" d="M133.823 164.247H133.057L135.073 160.518H132.914V159.856H135.883V160.438L133.823 164.247Z" fill="#16615D"/>
<circle class="mapCeilNumber" cx="98.6932" cy="220.339" r="6.26744" fill="white"/>
<path class="mapCeilNumber" d="M97.4061 222.117L98.6552 220.546H98.5872C98.2285 220.546 97.909 220.412 97.6287 220.144C97.3525 219.872 97.2144 219.536 97.2144 219.136C97.2144 218.716 97.3546 218.364 97.6349 218.079C97.9193 217.795 98.2821 217.652 98.7232 217.652C99.1643 217.652 99.525 217.795 99.8053 218.079C100.09 218.364 100.232 218.714 100.232 219.13C100.232 219.341 100.191 219.528 100.108 219.693C100.03 219.858 99.9043 220.052 99.7311 220.274L98.2594 222.117H97.4061ZM98.1358 219.724C98.2924 219.881 98.4882 219.959 98.7232 219.959C98.9582 219.959 99.1519 219.881 99.3045 219.724C99.4611 219.563 99.5394 219.365 99.5394 219.13C99.5394 218.904 99.4611 218.71 99.3045 218.549C99.1478 218.388 98.9541 218.308 98.7232 218.308C98.4924 218.308 98.2986 218.388 98.142 218.549C97.9853 218.71 97.907 218.904 97.907 219.13C97.907 219.365 97.9832 219.563 98.1358 219.724Z" fill="#16615D"/>
<circle class="mapCeilNumber" cx="157.192" cy="260.35" r="6.26744" fill="white"/>
<path class="mapCeilNumber" d="M155.032 262.127V258.411H154.148L154.668 257.737H155.713V262.127H155.032ZM159.211 261.719C158.914 262.033 158.532 262.189 158.067 262.189C157.601 262.189 157.219 262.033 156.923 261.719C156.626 261.402 156.477 260.996 156.477 260.501V259.351C156.477 258.856 156.626 258.452 156.923 258.139C157.219 257.822 157.601 257.663 158.067 257.663C158.532 257.663 158.914 257.822 159.211 258.139C159.512 258.452 159.662 258.856 159.662 259.351V260.501C159.662 260.996 159.512 261.402 159.211 261.719ZM158.067 261.521C158.343 261.521 158.563 261.431 158.728 261.249C158.897 261.068 158.982 260.819 158.982 260.501V259.351C158.982 259.034 158.897 258.784 158.728 258.603C158.563 258.421 158.343 258.331 158.067 258.331C157.795 258.331 157.574 258.421 157.405 258.603C157.24 258.784 157.158 259.034 157.158 259.351V260.501C157.158 260.819 157.24 261.068 157.405 261.249C157.574 261.431 157.795 261.521 158.067 261.521Z" fill="#16615D"/>
<circle class="mapCeilNumber" cx="191.864" cy="196.867" r="6.26744" fill="white"/>
<path class="mapCeilNumber" d="M191.874 198.706C191.437 198.706 191.076 198.576 190.792 198.316C190.507 198.052 190.365 197.719 190.365 197.315C190.365 196.803 190.573 196.434 190.99 196.208C190.718 195.998 190.582 195.707 190.582 195.336C190.582 195.002 190.701 194.726 190.94 194.507C191.184 194.289 191.495 194.18 191.874 194.18C192.257 194.18 192.569 194.289 192.808 194.507C193.051 194.722 193.173 194.998 193.173 195.336C193.173 195.707 193.037 195.998 192.764 196.208C193.181 196.434 193.389 196.803 193.389 197.315C193.389 197.723 193.247 198.057 192.962 198.316C192.682 198.576 192.319 198.706 191.874 198.706ZM191.874 198.069C192.125 198.069 192.325 197.995 192.474 197.846C192.622 197.698 192.696 197.517 192.696 197.302C192.696 197.084 192.622 196.902 192.474 196.758C192.325 196.61 192.128 196.535 191.88 196.535C191.629 196.535 191.429 196.61 191.28 196.758C191.132 196.902 191.058 197.084 191.058 197.302C191.058 197.517 191.132 197.698 191.28 197.846C191.433 197.995 191.631 198.069 191.874 198.069ZM191.874 195.96C192.064 195.96 192.216 195.905 192.332 195.793C192.451 195.678 192.511 195.54 192.511 195.379C192.511 195.21 192.453 195.072 192.338 194.965C192.222 194.854 192.068 194.798 191.874 194.798C191.689 194.798 191.536 194.854 191.416 194.965C191.301 195.076 191.243 195.214 191.243 195.379C191.243 195.54 191.303 195.678 191.423 195.793C191.542 195.905 191.693 195.96 191.874 195.96Z" fill="#16615D"/>
<circle class="mapCeilNumber" cx="169.515" cy="97.41" r="6.26744" fill="white"/>
<path class="mapCeilNumber" d="M169.966 99.1878V98.0872H167.697V97.5368L170.041 94.7975H170.647V97.4565H171.234V98.0872H170.647V99.1878H169.966ZM168.55 97.4565H169.966V95.8116L168.55 97.4565Z" fill="#16615D"/>
<circle class="mapCeilNumber" cx="226.537" cy="133.384" r="6.26744" fill="white"/>
<path class="mapCeilNumber" d="M226.533 135.223C226.133 135.223 225.783 135.098 225.482 134.846C225.181 134.595 225.026 134.29 225.018 133.931H225.717C225.762 134.116 225.859 134.267 226.007 134.382C226.16 134.498 226.335 134.555 226.533 134.555C226.776 134.555 226.974 134.477 227.126 134.32C227.279 134.16 227.355 133.966 227.355 133.739C227.355 133.504 227.279 133.31 227.126 133.158C226.978 133.001 226.786 132.923 226.551 132.923C226.197 132.923 225.941 133.073 225.785 133.374L225.172 133.183L225.642 130.771H227.732V131.433H226.174L225.97 132.484C226.152 132.356 226.38 132.292 226.657 132.292C227.069 132.292 227.403 132.434 227.658 132.719C227.914 133.003 228.042 133.366 228.042 133.807C228.042 134.219 227.899 134.56 227.615 134.827C227.335 135.091 226.974 135.223 226.533 135.223Z" fill="#16615D"/>
<circle class="mapCeilNumber" cx="204.926" cy="37.3739" r="6.26744" fill="white"/>
<path class="mapCeilNumber" d="M206.381 38.4829V39.1507H203.475V38.9034C203.475 38.7467 203.497 38.5983 203.543 38.4581C203.592 38.3139 203.644 38.1943 203.697 38.0995C203.751 38.0047 203.84 37.8996 203.963 37.7841C204.087 37.6646 204.182 37.5801 204.248 37.5306C204.314 37.477 204.429 37.3905 204.594 37.2709C204.763 37.1514 204.87 37.0751 204.916 37.0421C205.175 36.8525 205.363 36.6855 205.478 36.5412C205.594 36.397 205.651 36.2238 205.651 36.0218C205.651 35.8198 205.59 35.6591 205.466 35.5395C205.342 35.4158 205.171 35.354 204.953 35.354C204.726 35.354 204.538 35.422 204.39 35.5581C204.241 35.69 204.165 35.8714 204.161 36.1022H203.475C203.475 35.6859 203.615 35.3458 203.895 35.0819C204.18 34.8181 204.534 34.6862 204.959 34.6862C205.35 34.6862 205.678 34.8016 205.942 35.0325C206.206 35.2633 206.338 35.5869 206.338 36.0033C206.338 36.3331 206.261 36.6113 206.109 36.8381C205.961 37.0607 205.713 37.2956 205.367 37.543C205.313 37.5842 205.214 37.6543 205.07 37.7532C204.926 37.8522 204.819 37.9284 204.749 37.982C204.683 38.0356 204.61 38.1098 204.532 38.2046C204.454 38.2953 204.4 38.3881 204.371 38.4829H206.381Z" fill="#16615D"/>
<circle class="mapCeilNumber" cx="261.21" cy="69.9003" r="6.26744" fill="white"/>
<path class="mapCeilNumber" d="M261.26 71.7398C260.819 71.7398 260.444 71.6079 260.134 71.3441C259.829 71.0803 259.673 70.7319 259.664 70.2991H260.345C260.361 70.534 260.454 70.7216 260.623 70.8618C260.796 71.0019 261.008 71.072 261.26 71.072C261.487 71.072 261.672 71.0122 261.816 70.8927C261.965 70.7731 262.041 70.6082 262.045 70.398C262.045 70.1671 261.969 69.994 261.816 69.8786C261.668 69.759 261.462 69.6993 261.198 69.6993H260.852V69.118H261.198C261.416 69.118 261.59 69.0603 261.717 68.9449C261.849 68.8294 261.917 68.679 261.921 68.4935C261.921 68.3121 261.855 68.1657 261.724 68.0544C261.592 67.939 261.429 67.8813 261.235 67.8813C261.004 67.8813 260.813 67.9493 260.66 68.0854C260.507 68.2173 260.431 68.3987 260.431 68.6295H259.745C259.745 68.2008 259.889 67.8586 260.178 67.603C260.47 67.3433 260.823 67.2135 261.235 67.2135C261.643 67.2135 261.973 67.3289 262.224 67.5598C262.48 67.7906 262.608 68.0874 262.608 68.4502C262.608 68.6522 262.556 68.8398 262.453 69.0129C262.35 69.1819 262.222 69.3118 262.07 69.4025C262.272 69.489 262.433 69.623 262.552 69.8044C262.672 69.9858 262.731 70.1981 262.731 70.4413C262.731 70.8247 262.593 71.138 262.317 71.3812C262.045 71.6203 261.693 71.7398 261.26 71.7398Z" fill="#16615D"/>
</svg> -->


<svg id="map" width="375" height="253" viewBox="0 0 375 253" fill="none" xmlns="http://www.w3.org/2000/svg">
<path id="ceil-1" class="mapCeil" d="M85.6 163.01L39.52 175.61L7.4 130.48L1 98.1997L63.14 81.1997L85.6 163.01Z" fill="#16615D"/>
<path id="ceil-2" class="mapCeil" d="M103.809 229.35L57.5895 214.75L40.9395 177.24L86.1095 164.89L103.809 229.35Z" fill="#16615D"/>
<path id="ceil-3" class="mapCeil" d="M134.339 61.7246L65.0742 80.6733L87.4586 162.497L156.723 143.548L134.339 61.7246Z" fill="#16615D"/>
<path id="ceil-4" class="mapCeil" d="M182.22 236.39L176.22 239.76L136.3 252.09L106.31 231.1L87.9902 164.37L157.25 145.43L182.22 236.39Z" fill="#16615D"/>
<path id="ceil-5" class="mapCeil" d="M205.472 42.2627L136.207 61.2114L158.591 143.035L227.856 124.086L205.472 42.2627Z" fill="#16615D"/>
<path id="ceil-6" class="mapCeil" d="M248.5 199.23L183.97 235.41L159.13 144.91L228.39 125.97L248.5 199.23Z" fill="#16615D"/>
<path id="ceil-7" class="mapCeil" d="M276.607 22.8027L207.342 41.7515L229.726 123.575L298.991 104.626L276.607 22.8027Z" fill="#16615D"/>
<path id="ceil-8" class="mapCeil" d="M324.95 199.12L258.28 193.75L250.25 198.26L230.27 125.46L299.53 106.51L324.95 199.12Z" fill="#16615D"/>
<path id="ceil-9" class="mapCeil" d="M358.48 100.7L373.74 189.71L327.01 199.28L301.41 106L360.12 89.9399L358.48 100.7Z" fill="#16615D"/>
<path id="ceil-10" class="mapCeil" d="M367.699 40.1999L360.439 87.8299L300.889 104.12L278.439 22.3199L352.169 2.1499L367.699 40.1999Z" fill="#16615D"/>
<rect x="40.9395" y="125.528" width="14.4172" height="14.4172" rx="7.20859" fill="white"/>
<path d="M47.9635 135.736V131.263H46.899L47.5243 130.451H48.7823V135.736H47.9635Z" fill="#16615D"/>
<rect x="104.872" y="108.01" width="14.4172" height="14.4172" rx="7.20859" fill="white"/>
<path d="M113.818 117.415V118.219H110.319V117.921C110.319 117.732 110.346 117.554 110.401 117.385C110.46 117.211 110.522 117.067 110.587 116.953C110.652 116.839 110.758 116.713 110.907 116.574C111.056 116.43 111.17 116.328 111.249 116.269C111.329 116.204 111.468 116.1 111.666 115.956C111.87 115.812 111.999 115.72 112.053 115.68C112.366 115.452 112.592 115.251 112.731 115.078C112.87 114.904 112.939 114.695 112.939 114.452C112.939 114.209 112.865 114.016 112.716 113.872C112.567 113.723 112.361 113.648 112.098 113.648C111.825 113.648 111.599 113.73 111.421 113.894C111.242 114.053 111.15 114.271 111.145 114.549H110.319C110.319 114.048 110.488 113.638 110.825 113.321C111.168 113.003 111.594 112.844 112.106 112.844C112.577 112.844 112.971 112.983 113.289 113.261C113.607 113.539 113.765 113.929 113.765 114.43C113.765 114.827 113.674 115.162 113.49 115.435C113.311 115.703 113.014 115.986 112.597 116.283C112.532 116.333 112.413 116.417 112.239 116.536C112.066 116.656 111.937 116.747 111.852 116.812C111.773 116.876 111.686 116.966 111.592 117.08C111.498 117.189 111.433 117.301 111.398 117.415H113.818Z" fill="#16615D"/>
<rect x="175.805" y="88.9053" width="14.4172" height="14.4172" rx="7.20859" fill="white"/>
<path d="M183.058 99.1882C182.527 99.1882 182.076 99.0294 181.704 98.7118C181.336 98.3942 181.148 97.9749 181.138 97.4538H181.957C181.977 97.7367 182.088 97.9625 182.292 98.1312C182.5 98.2999 182.756 98.3843 183.058 98.3843C183.331 98.3843 183.555 98.3123 183.728 98.1684C183.907 98.0245 183.999 97.826 184.004 97.5729C184.004 97.295 183.912 97.0866 183.728 96.9477C183.55 96.8037 183.302 96.7318 182.984 96.7318H182.567V96.0321H182.984C183.247 96.0321 183.455 95.9626 183.609 95.8237C183.768 95.6847 183.85 95.5036 183.855 95.2803C183.855 95.0619 183.775 94.8858 183.617 94.7518C183.458 94.6128 183.262 94.5433 183.029 94.5433C182.751 94.5433 182.52 94.6252 182.336 94.789C182.153 94.9478 182.061 95.1661 182.061 95.444H181.235C181.235 94.9279 181.408 94.516 181.756 94.2084C182.108 93.8957 182.532 93.7394 183.029 93.7394C183.52 93.7394 183.917 93.8784 184.22 94.1563C184.527 94.4342 184.681 94.7915 184.681 95.2282C184.681 95.4713 184.619 95.6971 184.495 95.9055C184.371 96.109 184.217 96.2653 184.034 96.3745C184.277 96.4787 184.47 96.64 184.614 96.8583C184.758 97.0767 184.83 97.3322 184.83 97.625C184.83 98.0865 184.664 98.4637 184.331 98.7565C184.004 99.0443 183.579 99.1882 183.058 99.1882Z" fill="#16615D"/>
<rect x="245.957" y="69.9053" width="14.4172" height="14.4172" rx="7.20859" fill="white"/>
<path d="M253.695 80.1138V78.7888H250.963V78.1263L253.784 74.8287H254.513V78.0295H255.221V78.7888H254.513V80.1138H253.695ZM251.99 78.0295H253.695V76.0495L251.99 78.0295Z" fill="#16615D"/>
<rect x="312.158" y="51.9053" width="14.4172" height="14.4172" rx="7.20859" fill="white"/>
<path d="M319.347 62.1882C318.865 62.1882 318.444 62.0369 318.081 61.7341C317.719 61.4314 317.533 61.0642 317.523 60.6325H318.364C318.419 60.8558 318.535 61.0369 318.714 61.1759C318.898 61.3148 319.109 61.3843 319.347 61.3843C319.64 61.3843 319.878 61.29 320.061 61.1014C320.245 60.9079 320.337 60.6747 320.337 60.4017C320.337 60.1189 320.245 59.8856 320.061 59.702C319.883 59.5134 319.652 59.4192 319.369 59.4192C318.942 59.4192 318.635 59.6003 318.446 59.9625L317.709 59.7318L318.275 56.8287H320.791V57.6252H318.915L318.669 58.8907C318.888 58.7368 319.163 58.6599 319.496 58.6599C319.992 58.6599 320.394 58.8311 320.702 59.1735C321.009 59.5159 321.163 59.9526 321.163 60.4836C321.163 60.9798 320.992 61.3893 320.649 61.7118C320.312 62.0294 319.878 62.1882 319.347 62.1882Z" fill="#16615D"/>
<rect x="66.1289" y="193.062" width="14.4172" height="14.4172" rx="7.20859" fill="white"/>
<path d="M74.6165 202.838C74.2791 203.176 73.8449 203.344 73.3139 203.344C72.7829 203.344 72.3487 203.176 72.0112 202.838C71.6738 202.496 71.5051 202.072 71.5051 201.565C71.5051 201.322 71.5522 201.099 71.6465 200.895C71.7457 200.692 71.8971 200.459 72.1006 200.196L73.8647 197.985H74.8919L73.4032 199.861H73.4851C73.9168 199.861 74.2989 200.025 74.6314 200.352C74.9639 200.675 75.1301 201.077 75.1301 201.558C75.1301 202.069 74.9589 202.496 74.6165 202.838ZM72.6067 202.273C72.7953 202.461 73.031 202.555 73.3139 202.555C73.5967 202.555 73.8325 202.461 74.021 202.273C74.2096 202.079 74.3039 201.843 74.3039 201.565C74.3039 201.292 74.2071 201.059 74.0136 200.866C73.825 200.672 73.5918 200.575 73.3139 200.575C73.036 200.575 72.8027 200.672 72.6142 200.866C72.4256 201.059 72.3313 201.292 72.3313 201.565C72.3313 201.843 72.4231 202.079 72.6067 202.273Z" fill="#16615D"/>
<rect x="125.129" y="176.905" width="14.4172" height="14.4172" rx="7.20859" fill="white"/>
<path d="M131.707 187.114H130.784L133.211 182.625H130.613V181.829H134.186V182.528L131.707 187.114Z" fill="#16615D"/>
<rect x="194.957" y="157.905" width="14.4172" height="14.4172" rx="7.20859" fill="white"/>
<path d="M202.162 168.188C201.636 168.188 201.202 168.032 200.859 167.719C200.517 167.402 200.346 167 200.346 166.513C200.346 165.898 200.596 165.454 201.097 165.181C200.77 164.928 200.606 164.578 200.606 164.131C200.606 163.729 200.75 163.397 201.038 163.134C201.331 162.871 201.705 162.739 202.162 162.739C202.623 162.739 202.998 162.871 203.286 163.134C203.579 163.392 203.725 163.724 203.725 164.131C203.725 164.578 203.561 164.928 203.234 165.181C203.735 165.454 203.986 165.898 203.986 166.513C203.986 167.005 203.814 167.407 203.472 167.719C203.135 168.032 202.698 168.188 202.162 168.188ZM202.162 167.422C202.465 167.422 202.705 167.332 202.884 167.154C203.063 166.975 203.152 166.757 203.152 166.498C203.152 166.235 203.063 166.017 202.884 165.843C202.705 165.665 202.467 165.575 202.169 165.575C201.867 165.575 201.626 165.665 201.447 165.843C201.269 166.017 201.179 166.235 201.179 166.498C201.179 166.757 201.269 166.975 201.447 167.154C201.631 167.332 201.869 167.422 202.162 167.422ZM202.162 164.883C202.39 164.883 202.574 164.816 202.713 164.682C202.857 164.543 202.929 164.377 202.929 164.184C202.929 163.98 202.859 163.814 202.72 163.685C202.581 163.551 202.395 163.484 202.162 163.484C201.939 163.484 201.755 163.551 201.611 163.685C201.472 163.819 201.403 163.985 201.403 164.184C201.403 164.377 201.475 164.543 201.619 164.682C201.762 164.816 201.944 164.883 202.162 164.883Z" fill="#16615D"/>
<rect x="331.072" y="120.905" width="14.4172" height="14.4172" rx="7.20859" fill="white"/>
<path d="M335.841 131.114V126.64H334.776L335.402 125.829H336.66V131.114H335.841ZM340.871 130.622C340.513 131 340.054 131.188 339.494 131.188C338.933 131.188 338.474 131 338.116 130.622C337.759 130.24 337.581 129.752 337.581 129.156V127.772C337.581 127.176 337.759 126.69 338.116 126.313C338.474 125.93 338.933 125.739 339.494 125.739C340.054 125.739 340.513 125.93 340.871 126.313C341.233 126.69 341.414 127.176 341.414 127.772V129.156C341.414 129.752 341.233 130.24 340.871 130.622ZM339.494 130.384C339.826 130.384 340.092 130.275 340.29 130.057C340.493 129.838 340.595 129.538 340.595 129.156V127.772C340.595 127.389 340.493 127.089 340.29 126.871C340.092 126.653 339.826 126.543 339.494 126.543C339.166 126.543 338.901 126.653 338.697 126.871C338.499 127.089 338.399 127.389 338.399 127.772V129.156C338.399 129.538 338.499 129.838 338.697 130.057C338.901 130.275 339.166 130.384 339.494 130.384Z" fill="#16615D"/>
<rect x="265.129" y="138.194" width="14.4172" height="14.4172" rx="7.20859" fill="white"/>
<path d="M270.773 148.403L272.277 146.512H272.195C271.763 146.512 271.378 146.351 271.041 146.028C270.709 145.701 270.542 145.296 270.542 144.815C270.542 144.309 270.711 143.885 271.048 143.542C271.391 143.2 271.828 143.028 272.359 143.028C272.89 143.028 273.324 143.2 273.661 143.542C274.004 143.885 274.175 144.306 274.175 144.808C274.175 145.061 274.125 145.286 274.026 145.485C273.932 145.683 273.78 145.917 273.572 146.185L271.8 148.403H270.773ZM271.651 145.522C271.84 145.711 272.076 145.805 272.359 145.805C272.641 145.805 272.875 145.711 273.058 145.522C273.247 145.329 273.341 145.09 273.341 144.808C273.341 144.535 273.247 144.301 273.058 144.108C272.87 143.914 272.636 143.818 272.359 143.818C272.081 143.818 271.847 143.914 271.659 144.108C271.47 144.301 271.376 144.535 271.376 144.808C271.376 145.09 271.468 145.329 271.651 145.522Z" fill="#16615D"/>
<path d="M360.12 89.9403L301.41 106L327.01 199.28L324.95 199.12L299.53 106.51L230.27 125.46L250.25 198.26L248.5 199.23L228.39 125.97L159.13 144.91L183.97 235.41L182.22 236.39L157.25 145.43L87.9895 164.37L106.31 231.1L103.81 229.35L86.1095 164.89L40.9395 177.24L39.5195 175.61L85.5995 163.01L63.1395 81.2003L65.0195 80.6903L87.4795 162.49L156.74 143.55L134.28 61.7503L136.16 61.2303L158.62 143.04L227.88 124.09L205.42 42.2903L207.3 41.7803L229.75 123.58L299.02 104.63L276.56 22.8303L278.44 22.3203L300.89 104.12L360.44 87.8303L360.12 89.9403Z" fill="white"/>
<path d="M358.48 99.55L360.12 88.79L360.44 86.68L367.7 39.04L352.17 1L278.44 21.17L276.56 21.68L207.3 40.62L205.42 41.14L136.16 60.08L134.28 60.6L65.02 79.54L63.14 80.05L1 97.05L7.4 129.33L39.52 174.46L40.94 176.09L57.59 213.6L103.81 228.2L106.31 229.95L136.3 250.94L176.22 238.61L182.22 235.24L183.97 234.26L248.5 198.08L250.25 197.11L258.28 192.6L324.95 197.97L327.01 198.13L373.74 188.56L358.48 99.55Z" stroke="white" stroke-width="2" stroke-miterlimit="10" stroke-linejoin="round"/>
</svg>

