<svg id="map" width="323" height="394" viewBox="0 0 323 394" fill="none" xmlns="http://www.w3.org/2000/svg">
  <path d="M322.125 0.283691L320.513 124.209L286.384 99.7075L286.359 99.6892L268.932 130.413L119.973 393.054L57.3604 348.393L66.9942 335.256L36.3435 313.363L20.1436 312.926V306.595L11.3856 304.608L0.875977 18.249H38.4046C38.4046 18.249 52.837 24.0976 65.4994 28.8572C73.9066 32.028 81.5343 34.7127 83.6321 34.8869C88.8869 35.3248 137.489 34.8869 143.617 33.1353C149.748 31.3837 219.367 4.23625 219.367 4.23625L244.213 3.2825L322.125 0.283691Z" fill="#477C79"/>
  <path class="mapCeil" d="M167.626 24.2425L118.847 111.164L66.4071 81.7358L66.2237 71.7993L66.1939 70.1463L65.4351 28.8875C73.8423 32.0582 81.47 34.743 83.5678 34.9172C84.0309 34.9562 84.831 34.9883 85.9109 35.0135C86.2066 35.0181 86.523 35.025 86.86 35.0295C99.2106 35.2405 138.113 34.72 143.553 33.1656C145.699 32.5535 155.629 28.8256 167.626 24.2425Z" fill="#16615D"/>
  <path class="mapCeil" d="M257.077 14.2212L217.934 83.9687L154.914 48.602L168.846 23.7747C190.957 15.3194 219.303 4.26643 219.303 4.26643L244.149 3.31268C248.624 6.99012 253.131 10.8189 257.077 14.2212Z" fill="#16615D"/>
  <path class="mapCeil" d="M297.898 74.9811L286.384 99.6226L286.32 99.7373L286.295 99.7189L276.567 116.87L218.583 84.3329L257.652 14.716C264.45 20.5875 269.439 25.0651 269.439 25.0651L297.898 74.9811Z" fill="#16615D"/>
  <path class="mapCeil" d="M276.138 117.625L268.868 130.443L240.847 179.749L183.143 147.365L218.108 85.0574L276.138 117.625Z" fill="#16615D"/>
  <path id="redArea" class="mapCeil" d="M66.4077 82.7036L68.5812 200.76L118.444 111.908L66.4077 82.7036Z" fill="red"/>
  <path class="mapCeil" d="M146.928 210.411L108.909 278.159L69.3377 240.929L68.627 202.304L83.9213 175.051L146.928 210.411Z" fill="#16615D"/>
  <path class="mapCeil" d="M204.926 242.961L162.784 317.117L111.211 280.327L109.459 278.68V278.678L147.57 210.772L204.926 242.961Z" fill="#16615D"/>
  <path class="mapCeil" d="M240.537 180.295V180.297L205.299 242.305L147.937 210.116L147.93 210.111L182.836 147.914L240.537 180.295Z" fill="#16615D"/>
  <path class="mapCeil" d="M217.564 84.7534L182.597 147.059L119.525 111.665L154.491 49.3569L217.564 84.7534Z" fill="#16615D"/>
  <path class="mapCeil" d="M182.29 147.607L147.387 209.805H147.384L147.299 209.757L84.29 174.397L119.145 112.289L119.196 112.199L119.219 112.211L182.29 147.607Z" fill="#16615D"/>
</svg>
